<?xml version="1.0" encoding="UTF-8"?>
<!-- Do not edit this file with editors other than draw.io -->
<!DOCTYPE svg PUBLIC "-//W3C//DTD SVG 1.1//EN" "http://www.w3.org/Graphics/SVG/1.1/DTD/svg11.dtd">
<svg xmlns="http://www.w3.org/2000/svg" style="background: transparent; background-color: transparent; color-scheme: light dark;" xmlns:xlink="http://www.w3.org/1999/xlink" version="1.1" width="847px" height="961px" viewBox="-0.5 -0.5 847 961" content="&lt;mxfile host=&quot;app.diagrams.net&quot; agent=&quot;Mozilla/5.0 (Windows NT 10.0; Win64; x64) AppleWebKit/537.36 (KHTML, like Gecko) Chrome/136.0.0.0 Safari/537.36&quot; version=&quot;26.2.14&quot;&gt;&#10;  &lt;diagram name=&quot;Page-1&quot; id=&quot;_WgwPirGV8Ekrnk-XaM3&quot;&gt;&#10;    &lt;mxGraphModel dx=&quot;2131&quot; dy=&quot;1675&quot; grid=&quot;1&quot; gridSize=&quot;10&quot; guides=&quot;1&quot; tooltips=&quot;1&quot; connect=&quot;1&quot; arrows=&quot;1&quot; fold=&quot;1&quot; page=&quot;1&quot; pageScale=&quot;1&quot; pageWidth=&quot;850&quot; pageHeight=&quot;1100&quot; math=&quot;0&quot; shadow=&quot;0&quot;&gt;&#10;      &lt;root&gt;&#10;        &lt;mxCell id=&quot;0&quot; /&gt;&#10;        &lt;mxCell id=&quot;1&quot; parent=&quot;0&quot; /&gt;&#10;        &lt;mxCell id=&quot;lZi1SpKdkdcPsESIqgzh-2&quot; value=&quot;Proxmox main&quot; style=&quot;verticalLabelPosition=bottom;sketch=0;aspect=fixed;html=1;verticalAlign=top;strokeColor=none;align=center;outlineConnect=0;shape=mxgraph.citrix.1u_2u_server;&quot; vertex=&quot;1&quot; parent=&quot;1&quot;&gt;&#10;          &lt;mxGeometry x=&quot;-160&quot; y=&quot;840&quot; width=&quot;100&quot; height=&quot;39.1&quot; as=&quot;geometry&quot; /&gt;&#10;        &lt;/mxCell&gt;&#10;        &lt;mxCell id=&quot;lZi1SpKdkdcPsESIqgzh-6&quot; value=&quot;Main Machine&quot; style=&quot;verticalLabelPosition=bottom;sketch=0;aspect=fixed;html=1;verticalAlign=top;strokeColor=none;align=center;outlineConnect=0;shape=mxgraph.citrix.desktop;&quot; vertex=&quot;1&quot; parent=&quot;1&quot;&gt;&#10;          &lt;mxGeometry x=&quot;265&quot; y=&quot;472&quot; width=&quot;89&quot; height=&quot;98&quot; as=&quot;geometry&quot; /&gt;&#10;        &lt;/mxCell&gt;&#10;        &lt;mxCell id=&quot;lZi1SpKdkdcPsESIqgzh-8&quot; value=&quot;Moblie&quot; style=&quot;verticalLabelPosition=bottom;sketch=0;aspect=fixed;html=1;verticalAlign=top;strokeColor=none;align=center;outlineConnect=0;shape=mxgraph.citrix.pda;&quot; vertex=&quot;1&quot; parent=&quot;1&quot;&gt;&#10;          &lt;mxGeometry x=&quot;-490&quot; y=&quot;460&quot; width=&quot;30&quot; height=&quot;61&quot; as=&quot;geometry&quot; /&gt;&#10;        &lt;/mxCell&gt;&#10;        &lt;mxCell id=&quot;lZi1SpKdkdcPsESIqgzh-12&quot; value=&quot;&quot; style=&quot;verticalLabelPosition=bottom;sketch=0;aspect=fixed;html=1;verticalAlign=top;strokeColor=none;align=center;outlineConnect=0;shape=mxgraph.citrix.router;&quot; vertex=&quot;1&quot; parent=&quot;1&quot;&gt;&#10;          &lt;mxGeometry x=&quot;70.78&quot; y=&quot;180&quot; width=&quot;55&quot; height=&quot;36.5&quot; as=&quot;geometry&quot; /&gt;&#10;        &lt;/mxCell&gt;&#10;        &lt;mxCell id=&quot;lZi1SpKdkdcPsESIqgzh-17&quot; value=&quot;&quot; style=&quot;endArrow=none;dashed=1;html=1;rounded=1;&quot; edge=&quot;1&quot; parent=&quot;1&quot; source=&quot;lZi1SpKdkdcPsESIqgzh-8&quot; target=&quot;lZi1SpKdkdcPsESIqgzh-4&quot;&gt;&#10;          &lt;mxGeometry width=&quot;50&quot; height=&quot;50&quot; relative=&quot;1&quot; as=&quot;geometry&quot;&gt;&#10;            &lt;mxPoint x=&quot;85&quot; y=&quot;440&quot; as=&quot;sourcePoint&quot; /&gt;&#10;            &lt;mxPoint x=&quot;-325&quot; y=&quot;390&quot; as=&quot;targetPoint&quot; /&gt;&#10;          &lt;/mxGeometry&gt;&#10;        &lt;/mxCell&gt;&#10;        &lt;mxCell id=&quot;lZi1SpKdkdcPsESIqgzh-33&quot; value=&quot;Internet Requests&amp;lt;div&amp;gt;Handler&amp;amp;nbsp;&amp;lt;span style=&amp;quot;background-color: transparent; color: light-dark(rgb(0, 0, 0), rgb(255, 255, 255));&amp;quot;&amp;gt;Machine&amp;lt;/span&amp;gt;&amp;lt;/div&amp;gt;&quot; style=&quot;text;html=1;align=center;verticalAlign=middle;resizable=0;points=[];autosize=1;strokeColor=none;fillColor=none;&quot; vertex=&quot;1&quot; parent=&quot;1&quot;&gt;&#10;          &lt;mxGeometry x=&quot;-134.22&quot; y=&quot;560&quot; width=&quot;120&quot; height=&quot;40&quot; as=&quot;geometry&quot; /&gt;&#10;        &lt;/mxCell&gt;&#10;        &lt;mxCell id=&quot;lZi1SpKdkdcPsESIqgzh-34&quot; value=&quot;&quot; style=&quot;shape=link;html=1;rounded=0;exitX=0.283;exitY=0.5;exitDx=0;exitDy=0;exitPerimeter=0;&quot; edge=&quot;1&quot; parent=&quot;1&quot; source=&quot;lZi1SpKdkdcPsESIqgzh-4&quot; target=&quot;lZi1SpKdkdcPsESIqgzh-6&quot;&gt;&#10;          &lt;mxGeometry width=&quot;100&quot; relative=&quot;1&quot; as=&quot;geometry&quot;&gt;&#10;            &lt;mxPoint x=&quot;15&quot; y=&quot;640&quot; as=&quot;sourcePoint&quot; /&gt;&#10;            &lt;mxPoint x=&quot;115&quot; y=&quot;640&quot; as=&quot;targetPoint&quot; /&gt;&#10;          &lt;/mxGeometry&gt;&#10;        &lt;/mxCell&gt;&#10;        &lt;mxCell id=&quot;lZi1SpKdkdcPsESIqgzh-36&quot; value=&quot;&quot; style=&quot;shape=link;html=1;rounded=0;&quot; edge=&quot;1&quot; parent=&quot;1&quot; source=&quot;lZi1SpKdkdcPsESIqgzh-8&quot; target=&quot;lZi1SpKdkdcPsESIqgzh-4&quot;&gt;&#10;          &lt;mxGeometry width=&quot;100&quot; relative=&quot;1&quot; as=&quot;geometry&quot;&gt;&#10;            &lt;mxPoint x=&quot;15&quot; y=&quot;640&quot; as=&quot;sourcePoint&quot; /&gt;&#10;            &lt;mxPoint x=&quot;115&quot; y=&quot;640&quot; as=&quot;targetPoint&quot; /&gt;&#10;          &lt;/mxGeometry&gt;&#10;        &lt;/mxCell&gt;&#10;        &lt;mxCell id=&quot;lZi1SpKdkdcPsESIqgzh-37&quot; value=&quot;&quot; style=&quot;shape=link;html=1;rounded=0;entryX=0.546;entryY=0.333;entryDx=0;entryDy=0;entryPerimeter=0;&quot; edge=&quot;1&quot; parent=&quot;1&quot; target=&quot;lZi1SpKdkdcPsESIqgzh-4&quot;&gt;&#10;          &lt;mxGeometry width=&quot;100&quot; relative=&quot;1&quot; as=&quot;geometry&quot;&gt;&#10;            &lt;mxPoint x=&quot;-30&quot; y=&quot;650&quot; as=&quot;sourcePoint&quot; /&gt;&#10;            &lt;mxPoint x=&quot;115&quot; y=&quot;640&quot; as=&quot;targetPoint&quot; /&gt;&#10;          &lt;/mxGeometry&gt;&#10;        &lt;/mxCell&gt;&#10;        &lt;mxCell id=&quot;lZi1SpKdkdcPsESIqgzh-42&quot; value=&quot;&quot; style=&quot;shape=link;html=1;rounded=0;exitX=0.283;exitY=0.778;exitDx=0;exitDy=0;exitPerimeter=0;&quot; edge=&quot;1&quot; parent=&quot;1&quot; source=&quot;lZi1SpKdkdcPsESIqgzh-4&quot; target=&quot;lZi1SpKdkdcPsESIqgzh-12&quot;&gt;&#10;          &lt;mxGeometry width=&quot;100&quot; relative=&quot;1&quot; as=&quot;geometry&quot;&gt;&#10;            &lt;mxPoint x=&quot;50&quot; y=&quot;360&quot; as=&quot;sourcePoint&quot; /&gt;&#10;            &lt;mxPoint x=&quot;150&quot; y=&quot;360&quot; as=&quot;targetPoint&quot; /&gt;&#10;          &lt;/mxGeometry&gt;&#10;        &lt;/mxCell&gt;&#10;        &lt;mxCell id=&quot;lZi1SpKdkdcPsESIqgzh-13&quot; value=&quot;&quot; style=&quot;verticalLabelPosition=bottom;sketch=0;aspect=fixed;html=1;verticalAlign=top;strokeColor=none;align=center;outlineConnect=0;shape=mxgraph.citrix.process;&quot; vertex=&quot;1&quot; parent=&quot;1&quot;&gt;&#10;          &lt;mxGeometry x=&quot;42.620000000000005&quot; y=&quot;280&quot; width=&quot;52&quot; height=&quot;62&quot; as=&quot;geometry&quot; /&gt;&#10;        &lt;/mxCell&gt;&#10;        &lt;mxCell id=&quot;lZi1SpKdkdcPsESIqgzh-14&quot; value=&quot;&quot; style=&quot;verticalLabelPosition=bottom;sketch=0;aspect=fixed;html=1;verticalAlign=top;strokeColor=none;align=center;outlineConnect=0;shape=mxgraph.citrix.security;direction=east;rotation=10;&quot; vertex=&quot;1&quot; parent=&quot;1&quot;&gt;&#10;          &lt;mxGeometry x=&quot;30&quot; y=&quot;306.5&quot; width=&quot;20.25&quot; height=&quot;35.5&quot; as=&quot;geometry&quot; /&gt;&#10;        &lt;/mxCell&gt;&#10;        &lt;mxCell id=&quot;lZi1SpKdkdcPsESIqgzh-43&quot; value=&quot;&quot; style=&quot;endArrow=none;dashed=1;html=1;rounded=0;entryX=0.508;entryY=0.283;entryDx=0;entryDy=0;entryPerimeter=0;&quot; edge=&quot;1&quot; parent=&quot;1&quot; source=&quot;lZi1SpKdkdcPsESIqgzh-12&quot; target=&quot;lZi1SpKdkdcPsESIqgzh-9&quot;&gt;&#10;          &lt;mxGeometry width=&quot;50&quot; height=&quot;50&quot; relative=&quot;1&quot; as=&quot;geometry&quot;&gt;&#10;            &lt;mxPoint x=&quot;70&quot; y=&quot;180&quot; as=&quot;sourcePoint&quot; /&gt;&#10;            &lt;mxPoint x=&quot;120&quot; y=&quot;130&quot; as=&quot;targetPoint&quot; /&gt;&#10;          &lt;/mxGeometry&gt;&#10;        &lt;/mxCell&gt;&#10;        &lt;mxCell id=&quot;lZi1SpKdkdcPsESIqgzh-9&quot; value=&quot;&quot; style=&quot;verticalLabelPosition=bottom;sketch=0;aspect=fixed;html=1;verticalAlign=top;strokeColor=none;align=center;outlineConnect=0;shape=mxgraph.citrix.cloud;&quot; vertex=&quot;1&quot; parent=&quot;1&quot;&gt;&#10;          &lt;mxGeometry x=&quot;30&quot; y=&quot;-60&quot; width=&quot;216.33&quot; height=&quot;141.18&quot; as=&quot;geometry&quot; /&gt;&#10;        &lt;/mxCell&gt;&#10;        &lt;mxCell id=&quot;lZi1SpKdkdcPsESIqgzh-44&quot; value=&quot;Internet&quot; style=&quot;text;html=1;align=center;verticalAlign=middle;resizable=0;points=[];autosize=1;strokeColor=none;fillColor=none;&quot; vertex=&quot;1&quot; parent=&quot;1&quot;&gt;&#10;          &lt;mxGeometry x=&quot;111&quot; y=&quot;-10&quot; width=&quot;60&quot; height=&quot;30&quot; as=&quot;geometry&quot; /&gt;&#10;        &lt;/mxCell&gt;&#10;        &lt;mxCell id=&quot;lZi1SpKdkdcPsESIqgzh-45&quot; value=&quot;OpenWRT?&quot; style=&quot;text;html=1;align=center;verticalAlign=middle;resizable=0;points=[];autosize=1;strokeColor=none;fillColor=none;&quot; vertex=&quot;1&quot; parent=&quot;1&quot;&gt;&#10;          &lt;mxGeometry x=&quot;125&quot; y=&quot;183.25&quot; width=&quot;90&quot; height=&quot;30&quot; as=&quot;geometry&quot; /&gt;&#10;        &lt;/mxCell&gt;&#10;        &lt;mxCell id=&quot;lZi1SpKdkdcPsESIqgzh-46&quot; value=&quot;OPNsense&quot; style=&quot;text;html=1;align=center;verticalAlign=middle;whiteSpace=wrap;rounded=0;&quot; vertex=&quot;1&quot; parent=&quot;1&quot;&gt;&#10;          &lt;mxGeometry x=&quot;100&quot; y=&quot;306.5&quot; width=&quot;60&quot; height=&quot;30&quot; as=&quot;geometry&quot; /&gt;&#10;        &lt;/mxCell&gt;&#10;        &lt;mxCell id=&quot;lZi1SpKdkdcPsESIqgzh-4&quot; value=&quot;&quot; style=&quot;verticalLabelPosition=bottom;sketch=0;aspect=fixed;html=1;verticalAlign=top;strokeColor=none;align=center;outlineConnect=0;shape=mxgraph.citrix.dhcp_server;&quot; vertex=&quot;1&quot; parent=&quot;1&quot;&gt;&#10;          &lt;mxGeometry x=&quot;-46.5&quot; y=&quot;480&quot; width=&quot;76&quot; height=&quot;90&quot; as=&quot;geometry&quot; /&gt;&#10;        &lt;/mxCell&gt;&#10;        &lt;mxCell id=&quot;lZi1SpKdkdcPsESIqgzh-35&quot; value=&quot;VPN&quot; style=&quot;ellipse;shape=cloud;whiteSpace=wrap;html=1;&quot; vertex=&quot;1&quot; parent=&quot;1&quot;&gt;&#10;          &lt;mxGeometry x=&quot;-355&quot; y=&quot;460&quot; width=&quot;120&quot; height=&quot;80&quot; as=&quot;geometry&quot; /&gt;&#10;        &lt;/mxCell&gt;&#10;        &lt;mxCell id=&quot;lZi1SpKdkdcPsESIqgzh-47&quot; value=&quot;&quot; style=&quot;pointerEvents=1;verticalLabelPosition=bottom;shadow=0;dashed=0;align=center;html=1;verticalAlign=top;shape=mxgraph.electrical.electro-mechanical.make_contact;rotation=96;&quot; vertex=&quot;1&quot; parent=&quot;1&quot;&gt;&#10;          &lt;mxGeometry x=&quot;-60&quot; y=&quot;668.94&quot; width=&quot;75&quot; height=&quot;16&quot; as=&quot;geometry&quot; /&gt;&#10;        &lt;/mxCell&gt;&#10;        &lt;mxCell id=&quot;lZi1SpKdkdcPsESIqgzh-49&quot; value=&quot;&quot; style=&quot;shape=link;html=1;rounded=0;entryX=1;entryY=1;entryDx=0;entryDy=0;entryPerimeter=0;&quot; edge=&quot;1&quot; parent=&quot;1&quot; source=&quot;lZi1SpKdkdcPsESIqgzh-2&quot; target=&quot;lZi1SpKdkdcPsESIqgzh-47&quot;&gt;&#10;          &lt;mxGeometry width=&quot;100&quot; relative=&quot;1&quot; as=&quot;geometry&quot;&gt;&#10;            &lt;mxPoint x=&quot;50&quot; y=&quot;760&quot; as=&quot;sourcePoint&quot; /&gt;&#10;            &lt;mxPoint x=&quot;150&quot; y=&quot;760&quot; as=&quot;targetPoint&quot; /&gt;&#10;          &lt;/mxGeometry&gt;&#10;        &lt;/mxCell&gt;&#10;        &lt;mxCell id=&quot;lZi1SpKdkdcPsESIqgzh-51&quot; value=&quot;&quot; style=&quot;shape=flexArrow;html=1;rounded=0;exitX=0.815;exitY=0.825;exitDx=0;exitDy=0;exitPerimeter=0;&quot; edge=&quot;1&quot; parent=&quot;1&quot; source=&quot;lZi1SpKdkdcPsESIqgzh-24&quot; target=&quot;lZi1SpKdkdcPsESIqgzh-4&quot;&gt;&#10;          &lt;mxGeometry width=&quot;100&quot; relative=&quot;1&quot; as=&quot;geometry&quot;&gt;&#10;            &lt;mxPoint x=&quot;40&quot; y=&quot;620&quot; as=&quot;sourcePoint&quot; /&gt;&#10;            &lt;mxPoint x=&quot;130&quot; y=&quot;660&quot; as=&quot;targetPoint&quot; /&gt;&#10;          &lt;/mxGeometry&gt;&#10;        &lt;/mxCell&gt;&#10;        &lt;mxCell id=&quot;lZi1SpKdkdcPsESIqgzh-24&quot; value=&quot;Admin Backdoor?&quot; style=&quot;verticalLabelPosition=bottom;sketch=0;aspect=fixed;html=1;verticalAlign=top;strokeColor=none;align=center;outlineConnect=0;shape=mxgraph.citrix.laptop_2;&quot; vertex=&quot;1&quot; parent=&quot;1&quot;&gt;&#10;          &lt;mxGeometry x=&quot;253.5&quot; y=&quot;684.94&quot; width=&quot;100.5&quot; height=&quot;74.94&quot; as=&quot;geometry&quot; /&gt;&#10;        &lt;/mxCell&gt;&#10;      &lt;/root&gt;&#10;    &lt;/mxGraphModel&gt;&#10;  &lt;/diagram&gt;&#10;&lt;/mxfile&gt;&#10;"><defs/><g><g data-cell-id="0"><g data-cell-id="1"><g data-cell-id="lZi1SpKdkdcPsESIqgzh-2"><g><path d="M 387.89 939.1 L 332 921.1 L 332 910.05 L 333.25 909.75 L 337.76 911.1 L 385.18 900 L 432 914.6 L 432 926.85 L 389.24 936.35 L 389.24 938.85 Z" fill="#e1e3eb" stroke="none" pointer-events="all" style="fill: light-dark(rgb(225, 227, 235), rgb(40, 42, 49));"/><path d="M 384.13 926.15 L 432 915.1 L 432 926.85 L 384.13 937.6 Z" fill="#8a8f94" stroke="none" pointer-events="all" style="fill: light-dark(rgb(138, 143, 148), rgb(111, 115, 119));"/><path d="M 428.29 920.65 L 392.4 928.75 M 428.29 923.55 L 392.4 932.15" fill="none" stroke="#cccccc" stroke-width="0.75" stroke-linecap="round" stroke-miterlimit="10" pointer-events="all" style="stroke: light-dark(rgb(204, 204, 204), rgb(62, 62, 62));"/><rect x="332" y="900" width="0" height="0" fill="none" stroke="none" pointer-events="all"/><path d="M 332 910.05 L 387.89 927.65 L 387.89 939.1 L 332 921.1 Z" fill="#b9c0cc" stroke="none" pointer-events="all" style="fill: light-dark(rgb(185, 192, 204), rgb(67, 73, 83));"/><path d="M 332 910.05 L 333.25 909.75 L 389.24 927.35 L 387.89 927.65 Z" fill="#b3bbc6" stroke="none" pointer-events="all" style="fill: light-dark(rgb(179, 187, 198), rgb(71, 78, 87));"/><path d="M 387.89 927.65 L 389.24 927.35 L 389.24 938.85 L 387.89 939.1 Z" fill="#7f8389" stroke="none" pointer-events="all" style="fill: light-dark(rgb(127, 131, 137), rgb(121, 125, 130));"/><path d="M 332 921.1 L 332 910.05 L 333.25 909.75 L 341.27 912.25 L 340.02 912.5 C 339.93 913.11 339.9 913.73 339.92 914.35 C 339.79 916.89 339.91 919.43 340.27 921.95 C 340.34 922.73 340.6 923.49 341.02 924.15 Z" fill-opacity="0.3" fill="#000000" stroke="none" pointer-events="all" style="fill: light-dark(rgb(0, 0, 0), rgb(237, 237, 237));"/><rect x="332" y="900" width="0" height="0" fill="none" stroke="none" pointer-events="all"/><path d="M 333.53 912.06 L 334.24 912.26 C 334.27 912.33 334.25 912.42 334.19 912.46 L 333.48 912.26 C 333.44 912.19 333.47 912.1 333.53 912.06 Z" fill="#666666" stroke="#666666" stroke-width="0.45" stroke-miterlimit="10" pointer-events="all" style="fill: light-dark(rgb(102, 102, 102), rgb(149, 149, 149)); stroke: light-dark(rgb(102, 102, 102), rgb(149, 149, 149));"/><path d="M 343.58 918.35 C 343.82 918.32 344.05 918.45 344.21 918.68 C 344.36 918.92 344.43 919.24 344.38 919.55 C 344.31 920.05 343.96 920.39 343.58 920.35 C 343.35 920.32 343.14 920.16 343.02 919.91 C 342.89 919.66 342.86 919.34 342.93 919.05 C 343.02 918.66 343.28 918.39 343.58 918.35 Z" fill="#a4bc7a" stroke="#68686b" stroke-width="0.2" stroke-miterlimit="10" pointer-events="all" style="fill: light-dark(rgb(164, 188, 122), rgb(71, 92, 35)); stroke: light-dark(rgb(104, 104, 107), rgb(148, 148, 151));"/><path d="M 356.81 919.6 C 358.57 919.94 359.8 922.05 359.57 924.35 C 359.3 926.13 358.1 927.32 356.81 927.1 C 355.1 926.62 353.92 924.59 354.06 922.35 C 354.14 921.44 354.48 920.61 355.01 920.09 C 355.53 919.57 356.19 919.39 356.81 919.6 Z" fill="#e6e8ee" stroke="#68686b" stroke-width="0.45" stroke-miterlimit="10" pointer-events="all" style="fill: light-dark(rgb(230, 232, 238), rgb(37, 38, 44)); stroke: light-dark(rgb(104, 104, 107), rgb(148, 148, 151));"/><path d="M 356.81 921.1 C 357.59 921.33 358.12 922.42 358.02 923.6 C 358 924.11 357.86 924.59 357.63 924.91 C 357.4 925.23 357.1 925.35 356.81 925.25 C 355.9 925.07 355.24 923.91 355.31 922.6 C 355.35 922.11 355.54 921.67 355.82 921.39 C 356.11 921.1 356.47 921 356.81 921.1 Z" fill="#a4bc7a" stroke="#68686b" stroke-width="0.3" stroke-miterlimit="10" pointer-events="all" style="fill: light-dark(rgb(164, 188, 122), rgb(71, 92, 35)); stroke: light-dark(rgb(104, 104, 107), rgb(148, 148, 151));"/><path d="M 356.31 922.05 C 356.79 922.15 357.12 922.57 357.11 923.05 C 357.08 923.49 356.75 923.86 356.31 923.95 C 355.87 923.86 355.54 923.49 355.51 923.05 C 355.5 922.57 355.84 922.15 356.31 922.05 Z" fill="#e9faae" stroke="none" pointer-events="all" style="fill: light-dark(rgb(233, 250, 174), rgb(23, 38, 0));"/><path d="M 355.31 907.1 L 385.18 900 L 432 914.6 L 432 926.85 L 429.79 927.3 C 430.11 925.5 430.23 923.67 430.15 921.85 C 430.16 919.78 429.86 917.72 429.24 915.75 L 409.44 909.35 C 402.6 907.02 395.6 905.18 388.49 903.85 C 385.86 903.59 383.21 903.54 380.57 903.7 C 376.81 903.89 373.06 904.29 369.34 904.9 Z" fill-opacity="0.15" fill="#000000" stroke="none" pointer-events="all" style="fill: light-dark(rgb(0, 0, 0), rgb(237, 237, 237));"/><rect x="332" y="900" width="0" height="0" fill="none" stroke="none" pointer-events="all"/><path d="M 333.64 919.34 L 334.35 919.54 C 334.39 919.61 334.36 919.7 334.3 919.74 L 333.59 919.54 C 333.55 919.47 333.58 919.38 333.64 919.34 Z M 386.22 929.06 L 386.92 929.26 C 386.96 929.33 386.94 929.42 386.87 929.46 L 386.17 929.26 C 386.13 929.19 386.15 929.1 386.22 929.06 Z M 386.05 936.28 L 386.75 936.49 C 386.79 936.55 386.77 936.64 386.7 936.68 L 386 936.49 C 385.96 936.42 385.98 936.33 386.05 936.28 Z" fill="#666666" stroke="#666666" stroke-width="0.45" stroke-miterlimit="10" pointer-events="all" style="fill: light-dark(rgb(102, 102, 102), rgb(149, 149, 149)); stroke: light-dark(rgb(102, 102, 102), rgb(149, 149, 149));"/><path d="M 343.53 918.72 C 343.64 918.71 343.75 918.77 343.82 918.88 C 343.9 918.99 343.93 919.14 343.9 919.28 C 343.87 919.52 343.71 919.68 343.53 919.66 C 343.42 919.65 343.33 919.57 343.27 919.45 C 343.21 919.33 343.19 919.19 343.22 919.05 C 343.27 918.87 343.39 918.74 343.53 918.72 Z" fill="#e9faae" stroke="none" pointer-events="all" style="fill: light-dark(rgb(233, 250, 174), rgb(23, 38, 0));"/><path d="M 346.2 919.18 C 346.43 919.16 346.67 919.28 346.82 919.52 C 346.98 919.75 347.05 920.08 347 920.39 C 346.92 920.88 346.58 921.23 346.2 921.18 C 345.97 921.16 345.76 921 345.63 920.74 C 345.51 920.49 345.47 920.17 345.54 919.89 C 345.63 919.5 345.89 919.22 346.2 919.18 Z" fill="#a4bc7a" stroke="#68686b" stroke-width="0.2" stroke-miterlimit="10" pointer-events="all" style="fill: light-dark(rgb(164, 188, 122), rgb(71, 92, 35)); stroke: light-dark(rgb(104, 104, 107), rgb(148, 148, 151));"/><path d="M 346.15 919.55 C 346.26 919.54 346.37 919.6 346.44 919.71 C 346.51 919.82 346.54 919.97 346.52 920.12 C 346.49 920.36 346.32 920.52 346.15 920.49 C 346.04 920.48 345.94 920.4 345.89 920.29 C 345.83 920.17 345.81 920.02 345.84 919.89 C 345.89 919.7 346 919.57 346.15 919.55 Z" fill="#e9faae" stroke="none" pointer-events="all" style="fill: light-dark(rgb(233, 250, 174), rgb(23, 38, 0));"/><path d="M 348.81 919.96 C 349.05 919.93 349.28 920.06 349.44 920.29 C 349.6 920.53 349.66 920.85 349.61 921.16 C 349.54 921.66 349.19 922 348.81 921.96 C 348.58 921.93 348.38 921.77 348.25 921.52 C 348.12 921.27 348.09 920.95 348.16 920.66 C 348.25 920.27 348.51 920 348.81 919.96 Z" fill="#a4bc7a" stroke="#68686b" stroke-width="0.2" stroke-miterlimit="10" pointer-events="all" style="fill: light-dark(rgb(164, 188, 122), rgb(71, 92, 35)); stroke: light-dark(rgb(104, 104, 107), rgb(148, 148, 151));"/><path d="M 348.77 920.34 C 348.88 920.32 348.99 920.38 349.06 920.49 C 349.13 920.6 349.16 920.75 349.14 920.89 C 349.11 921.13 348.95 921.29 348.77 921.27 C 348.66 921.26 348.57 921.18 348.51 921.07 C 348.45 920.95 348.43 920.8 348.46 920.66 C 348.5 920.48 348.62 920.35 348.77 920.34 Z" fill="#e9faae" stroke="none" pointer-events="all" style="fill: light-dark(rgb(233, 250, 174), rgb(23, 38, 0));"/><path d="M 351.43 920.68 C 351.67 920.66 351.9 920.78 352.06 921.02 C 352.22 921.25 352.28 921.58 352.24 921.89 C 352.16 922.38 351.82 922.73 351.43 922.68 C 351.21 922.66 351 922.5 350.87 922.24 C 350.75 921.99 350.71 921.67 350.78 921.39 C 350.87 921 351.13 920.72 351.43 920.68 Z" fill="#a4bc7a" stroke="#68686b" stroke-width="0.2" stroke-miterlimit="10" pointer-events="all" style="fill: light-dark(rgb(164, 188, 122), rgb(71, 92, 35)); stroke: light-dark(rgb(104, 104, 107), rgb(148, 148, 151));"/><path d="M 351.38 921.05 C 351.49 921.04 351.6 921.1 351.68 921.21 C 351.75 921.32 351.78 921.47 351.76 921.62 C 351.72 921.86 351.56 922.02 351.38 921.99 C 351.28 921.98 351.18 921.91 351.12 921.79 C 351.06 921.67 351.05 921.52 351.08 921.39 C 351.12 921.2 351.24 921.07 351.38 921.05 Z" fill="#e9faae" stroke="none" pointer-events="all" style="fill: light-dark(rgb(233, 250, 174), rgb(23, 38, 0));"/><path d="M 362.29 924.35 C 362.53 924.32 362.76 924.45 362.92 924.68 C 363.08 924.92 363.14 925.24 363.09 925.55 C 363.02 926.05 362.67 926.39 362.29 926.35 C 362.06 926.32 361.86 926.16 361.73 925.91 C 361.6 925.66 361.57 925.34 361.64 925.05 C 361.73 924.66 361.99 924.39 362.29 924.35 Z" fill="#a4bc7a" stroke="#68686b" stroke-width="0.2" stroke-miterlimit="10" pointer-events="all" style="fill: light-dark(rgb(164, 188, 122), rgb(71, 92, 35)); stroke: light-dark(rgb(104, 104, 107), rgb(148, 148, 151));"/><path d="M 362.25 924.72 C 362.36 924.71 362.46 924.77 362.53 924.88 C 362.61 924.99 362.64 925.14 362.62 925.28 C 362.58 925.52 362.42 925.68 362.25 925.66 C 362.14 925.65 362.04 925.57 361.98 925.45 C 361.92 925.33 361.91 925.19 361.94 925.05 C 361.98 924.87 362.1 924.74 362.25 924.72 Z" fill="#e9faae" stroke="none" pointer-events="all" style="fill: light-dark(rgb(233, 250, 174), rgb(23, 38, 0));"/><path d="M 364.97 925.13 C 365.2 925.1 365.44 925.23 365.6 925.46 C 365.75 925.7 365.82 926.02 365.77 926.33 C 365.69 926.83 365.35 927.17 364.97 927.13 C 364.74 927.1 364.53 926.94 364.41 926.69 C 364.28 926.44 364.25 926.12 364.32 925.83 C 364.41 925.44 364.66 925.17 364.97 925.13 Z" fill="#a4bc7a" stroke="#68686b" stroke-width="0.2" stroke-miterlimit="10" pointer-events="all" style="fill: light-dark(rgb(164, 188, 122), rgb(71, 92, 35)); stroke: light-dark(rgb(104, 104, 107), rgb(148, 148, 151));"/><path d="M 364.92 925.5 C 365.03 925.49 365.14 925.54 365.21 925.66 C 365.29 925.77 365.32 925.92 365.29 926.07 C 365.26 926.3 365.1 926.46 364.92 926.44 C 364.81 926.43 364.71 926.35 364.65 926.23 C 364.6 926.11 364.58 925.97 364.61 925.83 C 364.65 925.65 364.77 925.52 364.92 925.5 Z" fill="#e9faae" stroke="none" pointer-events="all" style="fill: light-dark(rgb(233, 250, 174), rgb(23, 38, 0));"/><path d="M 367.47 925.85 C 367.71 925.82 367.94 925.95 368.1 926.18 C 368.26 926.42 368.32 926.74 368.28 927.05 C 368.2 927.55 367.86 927.89 367.47 927.85 C 367.25 927.82 367.04 927.66 366.91 927.41 C 366.79 927.16 366.75 926.84 366.82 926.55 C 366.91 926.16 367.17 925.89 367.47 925.85 Z" fill="#a4bc7a" stroke="#68686b" stroke-width="0.2" stroke-miterlimit="10" pointer-events="all" style="fill: light-dark(rgb(164, 188, 122), rgb(71, 92, 35)); stroke: light-dark(rgb(104, 104, 107), rgb(148, 148, 151));"/><path d="M 367.42 926.22 C 367.53 926.21 367.64 926.27 367.72 926.38 C 367.79 926.49 367.82 926.64 367.8 926.78 C 367.76 927.02 367.6 927.18 367.42 927.16 C 367.32 927.15 367.22 927.07 367.16 926.95 C 367.1 926.83 367.09 926.69 367.12 926.55 C 367.16 926.37 367.28 926.24 367.42 926.22 Z" fill="#e9faae" stroke="none" pointer-events="all" style="fill: light-dark(rgb(233, 250, 174), rgb(23, 38, 0));"/><path d="M 370.26 926.63 C 370.49 926.6 370.73 926.73 370.88 926.96 C 371.04 927.2 371.11 927.52 371.06 927.83 C 370.98 928.33 370.64 928.67 370.26 928.63 C 370.03 928.6 369.82 928.44 369.69 928.19 C 369.57 927.94 369.53 927.62 369.6 927.33 C 369.69 926.94 369.95 926.67 370.26 926.63 Z" fill="#a4bc7a" stroke="#68686b" stroke-width="0.2" stroke-miterlimit="10" pointer-events="all" style="fill: light-dark(rgb(164, 188, 122), rgb(71, 92, 35)); stroke: light-dark(rgb(104, 104, 107), rgb(148, 148, 151));"/><path d="M 370.21 927 C 370.32 926.99 370.43 927.04 370.5 927.16 C 370.57 927.27 370.6 927.42 370.58 927.57 C 370.55 927.8 370.38 927.96 370.21 927.94 C 370.1 927.93 370 927.85 369.95 927.73 C 369.89 927.61 369.87 927.47 369.9 927.33 C 369.95 927.15 370.06 927.02 370.21 927 Z" fill="#e9faae" stroke="none" pointer-events="all" style="fill: light-dark(rgb(233, 250, 174), rgb(23, 38, 0));"/><path d="M 387.89 939.1 L 332 921.1 L 332 910.05 L 333.25 909.75 L 337.76 911.1 L 385.18 900 L 432 914.6 L 432 926.85 L 389.24 936.35 L 389.24 938.85 Z" fill="none" stroke="#666666" stroke-width="0.45" stroke-miterlimit="10" pointer-events="all" style="stroke: light-dark(rgb(102, 102, 102), rgb(149, 149, 149));"/></g><g><g transform="translate(-0.5 -0.5)"><switch><foreignObject style="overflow: visible; text-align: left;" pointer-events="none" width="100%" height="100%" requiredFeatures="http://www.w3.org/TR/SVG11/feature#Extensibility"><div xmlns="http://www.w3.org/1999/xhtml" style="display: flex; align-items: unsafe flex-start; justify-content: unsafe center; width: 1px; height: 1px; padding-top: 946px; margin-left: 382px;"><div style="box-sizing: border-box; font-size: 0; text-align: center; color: #000000; "><div style="display: inline-block; font-size: 12px; font-family: &quot;Helvetica&quot;; color: light-dark(#000000, #ffffff); line-height: 1.2; pointer-events: all; white-space: nowrap; ">Proxmox main</div></div></div></foreignObject><text x="382" y="958" fill="light-dark(#000000, #ffffff)" font-family="&quot;Helvetica&quot;" font-size="12px" text-anchor="middle">Proxmox main</text></switch></g></g></g><g data-cell-id="lZi1SpKdkdcPsESIqgzh-6"><g><path d="M 757 607.63 L 757 540.74 L 792.5 532 L 822.25 540.99 L 822.25 608.63 L 787.25 616.87 Z" fill="#abb4c5" stroke="none" pointer-events="all" style="fill: light-dark(rgb(171, 180, 197), rgb(75, 83, 97));"/><path d="M 757 540.74 L 792.5 532 L 822.25 540.99 L 787.25 549.47 Z" fill="#b8bfd1" stroke="none" pointer-events="all" style="fill: light-dark(rgb(184, 191, 209), rgb(67, 73, 89));"/><path d="M 787.25 549.47 L 822.25 540.99 L 822.25 608.63 L 787.25 616.87 Z" fill="#5b6369" stroke="none" pointer-events="all" style="fill: light-dark(rgb(91, 99, 105), rgb(147, 154, 159));"/><path d="M 787.6 586.27 C 781.09 583.76 774.85 580.58 769 576.78 C 766.19 574.84 763.81 572.34 762 569.44 C 760.76 567.18 760.12 564.63 760.15 562.05 C 760.04 559.27 760.09 556.49 760.3 553.72 C 760.44 551.24 760.71 548.78 761.1 546.33 C 761.47 544.98 762.02 543.68 762.75 542.48 C 764.27 541.46 765.99 540.62 767.85 539.99 C 771.02 538.91 774.24 538 777.5 537.24 C 780.9 536.33 784.36 535.67 787.85 535.25 C 790.22 534.95 792.61 534.87 795 535 C 798.88 535.27 802.71 536.11 806.35 537.49 L 818.2 541.83 C 819.24 543.56 819.92 545.48 820.2 547.48 C 820.53 550.16 820.71 552.86 820.75 555.56 C 820.94 561.53 820.77 567.49 820.25 573.44 C 820.18 576.06 819.29 578.59 817.7 580.68 C 815.38 583.22 812.26 584.9 808.85 585.42 C 806.12 585.85 803.36 586.05 800.6 586.02 Z" fill-opacity="0.4" fill="#ffffff" stroke="none" pointer-events="all" style="fill: light-dark(rgb(255, 255, 255), rgb(18, 18, 18));"/><rect x="757" y="532" width="0" height="0" fill="none" stroke="none" pointer-events="all"/><path d="M 762.75 552.72 L 762.75 549.97 L 780.75 554.72 L 780.75 557.46 Z M 763 604.89 L 763 579.68 L 780.5 584.42 L 780.5 609.63 Z" fill="#52595e" stroke="none" pointer-events="all" style="fill: light-dark(rgb(82, 89, 94), rgb(157, 163, 168));"/><path d="M 757 607.63 L 757 540.74 L 792.5 532 L 822.25 540.99 L 822.25 608.63 L 787.25 616.87 Z" fill="none" stroke="#000000" stroke-width="0.6" stroke-miterlimit="10" pointer-events="all" style="stroke: light-dark(rgb(0, 0, 0), rgb(237, 237, 237));"/><rect x="757" y="532" width="0" height="0" fill="none" stroke="none" pointer-events="all"/><path d="M 801.85 622.46 L 801.85 621.11 L 806.75 619.72 L 791.75 615.27 L 791.75 560.71 L 797 559.46 L 846 574.19 L 846 628.85 L 841 630 L 829.5 626.51 L 829.5 627.6 L 823.75 629.1 Z M 796.25 612.63 L 838.5 624.86 L 838.5 577.68 L 796.25 565.4 Z" fill="#b6bdcf" stroke="none" pointer-events="all" style="fill: light-dark(rgb(182, 189, 207), rgb(69, 75, 91));"/><path d="M 794.75 564.95 L 796.25 565.4 L 796.25 612.63 L 838.5 624.86 L 838.5 626.36 L 794.75 613.63 Z" fill="#e6e7e9" stroke="none" pointer-events="all" style="fill: light-dark(rgb(230, 231, 233), rgb(37, 38, 39));"/><path d="M 802.5 612.63 L 838.5 623.11 L 838.5 624.86 L 799 613.43 Z" fill="#5b6369" stroke="none" pointer-events="all" style="fill: light-dark(rgb(91, 99, 105), rgb(147, 154, 159));"/><path d="M 796.25 565.4 L 838.5 577.68 L 838.5 624.86 L 796.25 612.63 Z" fill-opacity="0.8" fill="#acd9f1" stroke="none" pointer-events="all" style="fill: light-dark(rgb(172, 217, 241), rgb(26, 64, 85));"/><path d="M 837.25 607.76 C 833.17 602.99 827.28 600.14 821 599.9 C 818.95 600.02 817.03 600.45 815.5 601.14 C 812.46 602.39 809.04 602.39 806 601.14 C 802.67 599.89 799.74 597.77 797.5 595 L 797.5 567.2 L 837.25 578.93 Z" fill-opacity="0.5" fill="#ffffff" stroke="none" pointer-events="all" style="fill: light-dark(rgb(255, 255, 255), rgb(18, 18, 18));"/><rect x="757" y="532" width="0" height="0" fill="none" stroke="none" pointer-events="all"/><path d="M 841.25 575.43 L 846 574.19 L 846 628.85 L 841.25 629.85 Z" fill="#5b6369" stroke="none" pointer-events="all" style="fill: light-dark(rgb(91, 99, 105), rgb(147, 154, 159));"/><path d="M 791.75 560.71 L 797 559.46 L 846 574.19 L 841.25 575.43 Z" fill="#c2c9d8" stroke="none" pointer-events="all" style="fill: light-dark(rgb(194, 201, 216), rgb(59, 65, 78));"/><path d="M 801.85 621.11 L 806.75 619.62 L 829.5 626.51 L 823.75 627.85 Z" fill="#676e77" stroke="none" pointer-events="all" style="fill: light-dark(rgb(103, 110, 119), rgb(138, 144, 152));"/><path d="M 823.75 627.85 L 829.5 626.51 L 829.5 626.51 L 829.5 627.6 L 823.75 629.1 Z" fill="#4c5357" stroke="none" pointer-events="all" style="fill: light-dark(rgb(76, 83, 87), rgb(162, 168, 172));"/><path d="M 762.75 558.46 L 762.75 555.71 L 780.75 560.46 L 780.75 563.2 Z" fill="#52595e" stroke="none" pointer-events="all" style="fill: light-dark(rgb(82, 89, 94), rgb(157, 163, 168));"/><path d="M 801.85 622.46 L 801.85 621.11 L 806.75 619.72 L 791.75 615.27 L 791.75 560.71 L 797 559.46 L 846 574.19 L 846 628.85 L 841 630 L 829.5 626.51 L 829.5 627.6 L 823.75 629.1 Z" fill="none" stroke="#000000" stroke-width="0.6" stroke-miterlimit="10" pointer-events="all" style="stroke: light-dark(rgb(0, 0, 0), rgb(237, 237, 237));"/></g><g><g transform="translate(-0.5 -0.5)"><switch><foreignObject style="overflow: visible; text-align: left;" pointer-events="none" width="100%" height="100%" requiredFeatures="http://www.w3.org/TR/SVG11/feature#Extensibility"><div xmlns="http://www.w3.org/1999/xhtml" style="display: flex; align-items: unsafe flex-start; justify-content: unsafe center; width: 1px; height: 1px; padding-top: 637px; margin-left: 802px;"><div style="box-sizing: border-box; font-size: 0; text-align: center; color: #000000; "><div style="display: inline-block; font-size: 12px; font-family: &quot;Helvetica&quot;; color: light-dark(#000000, #ffffff); line-height: 1.2; pointer-events: all; white-space: nowrap; ">Main Machine</div></div></div></foreignObject><text x="802" y="649" fill="light-dark(#000000, #ffffff)" font-family="&quot;Helvetica&quot;" font-size="12px" text-anchor="middle">Main Machine</text></switch></g></g></g><g data-cell-id="lZi1SpKdkdcPsESIqgzh-8"><g><path d="M 4.03 573.79 C 3.07 573.4 2.32 572.62 2 571.65 L 2 521.8 C 2.31 521.05 2.97 520.49 3.78 520.31 C 5.04 520 6.41 520.09 7.59 520.56 L 29.97 526.94 C 31.11 527.46 31.88 528.55 32 529.78 L 32 578.88 C 31.86 579.58 31.42 580.2 30.79 580.56 C 30.15 580.92 29.39 581 28.69 580.77 Z" fill="#5d5d5d" stroke="none" pointer-events="all" style="fill: light-dark(rgb(93, 93, 93), rgb(157, 157, 157));"/><path d="M 4.03 573.79 C 3.07 573.4 2.32 572.62 2 571.65 L 2 522.55 C 2.32 521.56 3.23 520.86 4.29 520.81 L 28.19 527.79 C 29.11 528.19 29.74 529.64 29.71 531.27 L 29.71 578.38 C 29.66 579.03 29.2 579.61 28.49 579.95 C 27.79 580.29 26.91 580.33 26.15 580.07 Z" fill="#dadada" stroke="none" pointer-events="all" style="fill: light-dark(rgb(218, 218, 218), rgb(50, 50, 50));"/><path d="M 5.56 563.08 C 4.52 562.46 3.87 561.37 3.83 560.18 L 3.83 527.29 C 3.72 526.72 3.95 526.13 4.43 525.79 C 4.91 525.45 5.55 525.41 6.07 525.69 L 25.14 531.13 C 26.51 531.83 27.36 533.24 27.32 534.76 L 27.32 566.27 C 27.19 567.56 26.06 568.54 24.73 568.51 Z" fill="#0061a6" stroke="none" pointer-events="all" style="fill: light-dark(rgb(0, 97, 166), rgb(98, 181, 241));"/><rect x="2" y="520" width="0" height="0" fill="none" stroke="none" pointer-events="all"/><path d="M 3.83 527.29 C 3.72 526.72 3.95 526.13 4.43 525.79 C 4.91 525.45 5.55 525.41 6.07 525.69 L 25.14 531.13 C 26.51 531.83 27.36 533.24 27.32 534.76 L 27.32 564.57 C 26.5 562.33 25.14 560.31 23.36 558.69 C 21.8 557.05 19.89 555.77 17.76 554.95 C 16.7 554.55 15.59 554.26 14.46 554.1 C 11.32 553.8 8.5 552.09 6.83 549.47 C 5.34 546.92 4.33 544.14 3.83 541.24 Z" fill-opacity="0.4" fill="#ffffff" stroke="none" pointer-events="all" style="fill: light-dark(rgb(255, 255, 255), rgb(18, 18, 18));"/><rect x="2" y="520" width="0" height="0" fill="none" stroke="none" pointer-events="all"/><path d="M 12.78 570.9 C 12.81 569.94 13.16 569.04 13.75 568.41 C 14.39 567.8 15.17 567.68 15.88 568.06 C 16.94 568.63 17.77 569.77 18.17 571.2 C 18.4 572.3 18.19 573.46 17.61 574.39 C 17.02 575.07 16.23 575.35 15.47 575.14 C 14.99 574.98 14.54 574.69 14.15 574.29 C 13.39 573.47 12.89 572.25 12.78 570.9 Z" fill="#e7e7e7" stroke="#807c7a" stroke-width="0.45" stroke-miterlimit="10" pointer-events="all" style="fill: light-dark(rgb(231, 231, 231), rgb(38, 38, 38)); stroke: light-dark(rgb(128, 124, 122), rgb(133, 129, 128));"/><path d="M 5.56 563.08 C 4.52 562.46 3.87 561.37 3.83 560.18 L 3.83 527.29 C 3.72 526.72 3.95 526.13 4.43 525.79 C 4.91 525.45 5.55 525.41 6.07 525.69 L 25.14 531.13 C 26.51 531.83 27.36 533.24 27.32 534.76 L 27.32 566.27 C 27.19 567.56 26.06 568.54 24.73 568.51 Z" fill="none" stroke="#807c7a" stroke-width="0.6" stroke-miterlimit="10" pointer-events="all" style="stroke: light-dark(rgb(128, 124, 122), rgb(133, 129, 128));"/><path d="M 4.03 573.79 C 3.07 573.4 2.32 572.62 2 571.65 L 2 521.8 C 2.31 521.05 2.97 520.49 3.78 520.31 C 5.04 520 6.41 520.09 7.59 520.56 L 29.97 526.94 C 31.11 527.46 31.88 528.55 32 529.78 L 32 578.88 C 31.86 579.58 31.42 580.2 30.79 580.56 C 30.15 580.92 29.39 581 28.69 580.77 Z" fill="none" stroke="#000000" stroke-width="0.45" stroke-miterlimit="10" pointer-events="all" style="stroke: light-dark(rgb(0, 0, 0), rgb(237, 237, 237));"/></g><g><g transform="translate(-0.5 -0.5)"><switch><foreignObject style="overflow: visible; text-align: left;" pointer-events="none" width="100%" height="100%" requiredFeatures="http://www.w3.org/TR/SVG11/feature#Extensibility"><div xmlns="http://www.w3.org/1999/xhtml" style="display: flex; align-items: unsafe flex-start; justify-content: unsafe center; width: 1px; height: 1px; padding-top: 588px; margin-left: 17px;"><div style="box-sizing: border-box; font-size: 0; text-align: center; color: #000000; "><div style="display: inline-block; font-size: 12px; font-family: &quot;Helvetica&quot;; color: light-dark(#000000, #ffffff); line-height: 1.2; pointer-events: all; white-space: nowrap; ">Moblie</div></div></div></foreignObject><text x="17" y="600" fill="light-dark(#000000, #ffffff)" font-family="&quot;Helvetica&quot;" font-size="12px" text-anchor="middle">Moblie</text></switch></g></g></g><g data-cell-id="lZi1SpKdkdcPsESIqgzh-12"><g><path d="M 562.84 246.99 C 564.88 242.97 576.43 240 590.02 240 C 603.61 240 615.16 242.97 617.19 246.99 L 617.19 269.51 C 615.16 273.53 603.61 276.5 590.02 276.5 C 576.43 276.5 564.88 273.53 562.84 269.51 Z" fill="#9ea5b5" stroke="none" pointer-events="all" style="fill: light-dark(rgb(158, 165, 181), rgb(90, 96, 110));"/><rect x="562.78" y="240" width="0" height="0" fill="none" stroke="none" pointer-events="all"/><ellipse cx="589.96" cy="247.52" rx="27.176765375854217" ry="7.435834935457293" fill="#b7bfd1" stroke="none" pointer-events="all" style="fill: light-dark(rgb(183, 191, 209), rgb(67, 74, 90));"/><path d="M 564.84 267.72 L 565.03 250.56 C 570.63 253.85 583.72 255.59 596.37 254.72 C 609.03 253.86 617.77 250.63 617.32 246.99 L 617.19 264.51 C 616.93 266.42 614.31 268.12 610.32 268.98 C 607.04 269.58 602.83 269.73 599.02 269.4 C 595.22 269.06 592.27 268.27 591.11 267.28 C 589.42 266.22 586.01 265.46 582 265.25 C 577.98 265.04 573.86 265.4 570.96 266.22 Z" fill-opacity="0.4" fill="#ffffff" stroke="none" pointer-events="all" style="fill: light-dark(rgb(255, 255, 255), rgb(18, 18, 18));"/><rect x="562.78" y="240" width="0" height="0" fill="none" stroke="none" pointer-events="all"/><path d="M 573.37 251.56 L 575.32 249.31 L 576.98 249.91 L 586.3 247.55 L 590.01 248.21 L 579.78 250.71 L 581.89 251.06 Z M 573.37 243.19 L 582.69 245.9 L 580.69 246.4 L 588.4 246.7 L 587.7 244.7 L 585.75 245.2 L 576.88 242.29 Z M 591.01 246.4 L 600.93 244.04 L 598.83 243.59 L 607.25 243.19 L 605.14 245.5 L 603.14 244.8 L 593.92 247.2 Z M 592.31 248.1 L 600.53 248.61 L 598.53 249.01 L 607.25 251.41 L 604.04 252.32 L 595.02 249.71 L 593.21 250.21 Z" fill="#363333" stroke="none" pointer-events="all" style="fill: light-dark(rgb(54, 51, 51), rgb(194, 192, 192));"/><path d="M 562.84 246.99 C 564.88 242.97 576.43 240 590.02 240 C 603.61 240 615.16 242.97 617.19 246.99 L 617.19 269.51 C 615.16 273.53 603.61 276.5 590.02 276.5 C 576.43 276.5 564.88 273.53 562.84 269.51 Z" fill="none" stroke="#000000" stroke-width="0.6" stroke-miterlimit="10" pointer-events="all" style="stroke: light-dark(rgb(0, 0, 0), rgb(237, 237, 237));"/></g></g><g data-cell-id="lZi1SpKdkdcPsESIqgzh-17"><g><path d="M 32 551.61 L 445.5 582.19" fill="none" stroke="#000000" stroke-miterlimit="10" stroke-dasharray="3 3" pointer-events="stroke" style="stroke: light-dark(rgb(0, 0, 0), rgb(255, 255, 255));"/></g></g><g data-cell-id="lZi1SpKdkdcPsESIqgzh-33"><g><rect x="357.78" y="620" width="120" height="40" fill="none" stroke="none" pointer-events="all"/></g><g><g transform="translate(-0.5 -0.5)"><switch><foreignObject style="overflow: visible; text-align: left;" pointer-events="none" width="100%" height="100%" requiredFeatures="http://www.w3.org/TR/SVG11/feature#Extensibility"><div xmlns="http://www.w3.org/1999/xhtml" style="display: flex; align-items: unsafe center; justify-content: unsafe center; width: 1px; height: 1px; padding-top: 640px; margin-left: 418px;"><div style="box-sizing: border-box; font-size: 0; text-align: center; color: #000000; "><div style="display: inline-block; font-size: 12px; font-family: &quot;Helvetica&quot;; color: light-dark(#000000, #ffffff); line-height: 1.2; pointer-events: all; white-space: nowrap; ">Internet Requests<div>Handler <span style="background-color: transparent; color: light-dark(rgb(0, 0, 0), rgb(255, 255, 255));">Machine</span></div></div></div></div></foreignObject><text x="418" y="644" fill="light-dark(#000000, #ffffff)" font-family="&quot;Helvetica&quot;" font-size="12px" text-anchor="middle">Internet Requests...</text></switch></g></g></g><g data-cell-id="lZi1SpKdkdcPsESIqgzh-34"><g><path d="M 466.98 583 L 756.98 579.53 M 757.02 583.53 L 467.03 587 M 757.02 583.53" fill="none" stroke="#000000" stroke-miterlimit="10" pointer-events="all" style="stroke: light-dark(rgb(0, 0, 0), rgb(255, 255, 255));"/></g></g><g data-cell-id="lZi1SpKdkdcPsESIqgzh-36"><g><path d="M 32.15 549.61 L 445.65 580.2 M 445.35 584.18 L 31.85 553.6 M 445.35 584.18" fill="none" stroke="#000000" stroke-miterlimit="10" pointer-events="all" style="stroke: light-dark(rgb(0, 0, 0), rgb(255, 255, 255));"/></g></g><g data-cell-id="lZi1SpKdkdcPsESIqgzh-37"><g><path d="M 460.03 709.65 L 485.03 569.62 M 488.96 570.32 L 463.97 710.35 M 488.96 570.32" fill="none" stroke="#000000" stroke-miterlimit="10" pointer-events="all" style="stroke: light-dark(rgb(0, 0, 0), rgb(255, 255, 255));"/></g></g><g data-cell-id="lZi1SpKdkdcPsESIqgzh-42"><g><path d="M 465.12 609.36 L 582 275.84 M 585.77 277.16 L 468.9 610.68 M 585.77 277.16" fill="none" stroke="#000000" stroke-miterlimit="10" pointer-events="all" style="stroke: light-dark(rgb(0, 0, 0), rgb(255, 255, 255));"/></g></g><g data-cell-id="lZi1SpKdkdcPsESIqgzh-13"><g><path d="M 545.14 401.8 L 542.76 361.76 L 545.93 361.06 L 548.61 363.75 C 549.31 363.67 550.01 363.71 550.7 363.85 L 551.69 361.86 L 554.67 361.26 L 556.85 362.6 L 557.49 367.13 C 558.74 368.26 559.84 369.78 560.72 371.6 L 563.7 372.24 L 564.59 374.97 L 563 378.65 C 563.32 380.6 563.42 382.61 563.3 384.61 L 565.38 387.89 L 564.79 391.47 L 561.81 392.16 C 561.1 393.55 560.27 394.76 559.33 395.74 L 559.33 400.36 L 557.44 401.5 L 554.07 402 L 550.8 397.43 L 547.52 401.9 Z M 551.39 382.53 L 550.5 378.85 C 550.18 378.6 549.84 378.76 549.58 379.28 C 549.32 379.8 549.18 380.6 549.21 381.43 C 549.3 382.38 549.66 383.14 550.13 383.37 C 550.59 383.61 551.09 383.28 551.39 382.53 Z" fill="#697079" stroke="#697079" stroke-width="0.6" stroke-miterlimit="10" pointer-events="all" style="fill: light-dark(rgb(105, 112, 121), rgb(136, 142, 150)); stroke: light-dark(rgb(105, 112, 121), rgb(136, 142, 150));"/><rect x="534.62" y="340" width="0" height="0" fill="none" stroke="none" pointer-events="all"/><path d="M 566.38 380.74 L 563.99 340.7 L 567.17 340 L 569.85 342.68 C 570.54 342.61 571.24 342.64 571.93 342.78 L 572.93 340.79 L 575.9 340.2 L 578.09 341.54 L 578.73 346.06 C 579.98 347.2 581.08 348.72 581.96 350.53 L 584.93 351.18 L 585.83 353.91 L 584.24 357.59 C 584.55 359.53 584.65 361.55 584.54 363.55 L 586.62 366.83 L 586.02 370.4 L 583.05 371.1 C 582.34 372.49 581.5 373.69 580.57 374.68 L 580.57 379.3 L 578.68 380.44 L 575.31 380.94 L 572.03 376.37 L 568.76 380.84 Z M 572.63 361.46 L 571.73 357.79 C 571.42 357.53 571.07 357.69 570.81 358.21 C 570.55 358.73 570.42 359.54 570.44 360.37 C 570.54 361.32 570.89 362.08 571.36 362.31 C 571.83 362.54 572.32 362.21 572.63 361.46 Z" fill="#697079" stroke="#697079" stroke-width="0.6" stroke-miterlimit="10" pointer-events="all" style="fill: light-dark(rgb(105, 112, 121), rgb(136, 142, 150)); stroke: light-dark(rgb(105, 112, 121), rgb(136, 142, 150));"/><path d="M 566.38 380.74 L 564.39 379.74 L 563.89 375.12 C 562.55 374.02 561.37 372.48 560.42 370.6 L 557.54 370.11 L 556.45 367.13 L 558.34 363.45 C 557.98 361.48 557.85 359.43 557.94 357.39 L 555.86 354.01 L 556.45 351.13 L 559.43 350.68 C 560.14 349.09 561.01 347.69 562.01 346.56 L 562.01 342.09 L 563.99 340.7 L 566.18 343.48 C 567.55 343.05 568.97 343.05 570.35 343.48 L 572.93 340.79 L 574.91 341.99 L 575.21 346.36 C 576.45 347.53 577.52 349.09 578.38 350.93 L 581.46 351.43 L 582.55 354.51 L 580.86 358.08 C 581.19 360.06 581.29 362.11 581.16 364.14 L 583.44 367.82 L 582.75 371.2 L 579.87 371.2 C 579.14 372.83 578.23 374.24 577.19 375.37 L 577.09 380.04 L 575.21 380.94 L 572.53 377.86 C 571.26 378.29 569.95 378.36 568.66 378.05 Z M 569.75 364.74 C 570.43 364.74 571.08 364.3 571.55 363.51 C 572.02 362.72 572.26 361.66 572.23 360.57 C 571.99 358.73 570.67 357.33 569.06 357.19 C 568.42 357.11 567.8 357.5 567.39 358.23 C 566.98 358.96 566.82 359.94 566.97 360.87 C 567.01 362.92 568.21 364.6 569.75 364.74" fill="#c0c6d2" stroke="#697079" stroke-width="0.6" stroke-miterlimit="10" pointer-events="all" style="fill: light-dark(rgb(192, 198, 210), rgb(63, 68, 78)); stroke: light-dark(rgb(105, 112, 121), rgb(136, 142, 150));"/><path d="M 545.14 401.8 L 543.15 400.81 L 542.66 396.19 C 541.32 395.08 540.13 393.54 539.18 391.67 L 536.31 391.17 L 535.22 388.19 L 537.1 384.51 C 536.75 382.55 536.61 380.49 536.7 378.45 L 534.62 375.07 L 535.22 372.19 L 538.19 371.75 C 538.9 370.15 539.77 368.76 540.77 367.62 L 540.77 363.15 L 542.76 361.76 L 544.94 364.54 C 546.32 364.12 547.73 364.12 549.11 364.54 L 551.69 361.86 L 553.67 363.05 L 553.97 367.42 C 555.21 368.6 556.29 370.15 557.15 371.99 L 560.22 372.49 L 561.31 375.57 L 559.63 379.15 C 559.95 381.12 560.05 383.18 559.93 385.21 L 562.21 388.88 L 561.51 392.26 L 558.64 392.26 C 557.9 393.89 556.99 395.3 555.96 396.44 L 555.86 401.11 L 553.97 402 L 551.29 398.92 C 550.02 399.35 548.71 399.42 547.42 399.12 Z M 548.51 385.8 C 549.19 385.81 549.84 385.36 550.31 384.57 C 550.78 383.78 551.03 382.72 550.99 381.63 C 550.76 379.79 549.44 378.39 547.82 378.25 C 547.18 378.18 546.56 378.56 546.15 379.29 C 545.74 380.02 545.58 381 545.73 381.93 C 545.77 383.99 546.98 385.67 548.51 385.8" fill="#c0c6d2" stroke="#697079" stroke-width="0.6" stroke-miterlimit="10" pointer-events="all" style="fill: light-dark(rgb(192, 198, 210), rgb(63, 68, 78)); stroke: light-dark(rgb(105, 112, 121), rgb(136, 142, 150));"/><path d="M 567.19 398.57 L 566.09 379.97 L 567.56 379.64 L 568.81 380.89 C 569.13 380.86 569.45 380.87 569.77 380.94 L 570.24 380.01 L 571.62 379.74 L 572.63 380.36 L 572.93 382.46 C 573.51 382.99 574.02 383.69 574.43 384.54 L 575.81 384.84 L 576.23 386.11 L 575.49 387.81 C 575.64 388.72 575.68 389.65 575.63 390.58 L 576.6 392.1 L 576.32 393.77 L 574.94 394.09 C 574.61 394.74 574.22 395.3 573.78 395.75 L 573.78 397.9 L 572.91 398.43 L 571.34 398.66 L 569.82 396.54 L 568.3 398.61 Z Z M 570.1 389.61 L 569.68 387.91 C 569.2 388.09 568.94 388.61 569.08 389.11 C 569.33 389.56 569.72 389.76 570.1 389.61 Z" fill="#697079" stroke="#697079" stroke-width="0.6" stroke-miterlimit="10" pointer-events="all" style="fill: light-dark(rgb(105, 112, 121), rgb(136, 142, 150)); stroke: light-dark(rgb(105, 112, 121), rgb(136, 142, 150));"/><path d="M 567.19 398.57 L 566.27 398.11 L 566.04 395.96 C 565.42 395.44 564.87 394.73 564.43 393.86 L 563.09 393.63 L 562.58 392.24 L 563.46 390.54 C 563.29 389.62 563.23 388.67 563.27 387.72 L 562.31 386.15 L 562.58 384.82 L 563.96 384.61 C 564.29 383.86 564.7 383.22 565.17 382.69 L 565.17 380.61 L 566.09 379.97 L 567.1 381.26 C 567.74 381.06 568.4 381.06 569.04 381.26 L 570.24 380.01 L 571.16 380.57 L 571.3 382.6 C 571.87 383.15 572.37 383.87 572.77 384.72 L 574.2 384.95 L 574.71 386.38 L 573.92 388.05 C 574.07 388.96 574.12 389.92 574.06 390.86 L 575.12 392.57 L 574.8 394.14 L 573.46 394.14 C 573.12 394.89 572.7 395.55 572.22 396.07 L 572.17 398.24 L 571.3 398.66 L 570.05 397.23 C 569.46 397.43 568.85 397.46 568.25 397.32 Z M 568.76 391.14 C 569.12 391.22 569.48 391.02 569.72 390.63 C 569.95 390.23 570.03 389.69 569.91 389.2 C 569.76 388.27 569.15 387.62 568.44 387.63 C 568.15 387.63 567.88 387.83 567.7 388.15 C 567.51 388.48 567.43 388.91 567.47 389.34 C 567.53 390.27 568.07 391.01 568.76 391.14 Z" fill="#c0c6d2" stroke="#697079" stroke-width="0.6" stroke-miterlimit="10" pointer-events="all" style="fill: light-dark(rgb(192, 198, 210), rgb(63, 68, 78)); stroke: light-dark(rgb(105, 112, 121), rgb(136, 142, 150));"/></g></g><g data-cell-id="lZi1SpKdkdcPsESIqgzh-14"><g><path d="M 522 397.88 L 522 380.63 L 526.13 379.5 L 526.13 367.13 L 528 366.5 L 538.63 369.75 L 538.63 381.5 L 542.25 382.5 L 542.25 400.25 L 535 402 Z M 529.63 378.75 L 535.25 380.5 L 535.25 371.38 L 529.63 369.75 Z" fill="#a3acbd" stroke="none" transform="rotate(10,532.13,384.25)" pointer-events="all" style="fill: light-dark(rgb(163, 172, 189), rgb(82, 90, 104));"/><path d="M 522 380.63 L 529 378.63 L 542.25 382.5 L 535.13 384.25 Z" fill="#b2b9ca" stroke="none" transform="rotate(10,532.13,384.25)" pointer-events="all" style="fill: light-dark(rgb(178, 185, 202), rgb(72, 78, 93));"/><path d="M 535.13 384.25 L 542.25 382.5 L 542.25 400.25 L 535.13 402 Z" fill="#5b6369" stroke="none" transform="rotate(10,532.13,384.25)" pointer-events="all" style="fill: light-dark(rgb(91, 99, 105), rgb(147, 154, 159));"/><path d="M 522 395.25 L 535.13 399.13 L 542.25 397.38 L 542.25 399.13 L 535.13 400.88 L 522 396.88 Z" fill-opacity="0.7" fill="#0378b2" stroke="none" transform="rotate(10,532.13,384.25)" pointer-events="all" style="fill: light-dark(rgb(3, 120, 178), rgb(69, 170, 220));"/><rect x="522" y="366.5" width="0" height="0" fill="none" stroke="none" transform="rotate(10,532.13,384.25)" pointer-events="all"/><path d="M 527 391 C 526.5 390.61 526.27 390.05 526.38 389.5 C 526.65 389 527.1 388.82 527.5 389.05 C 527.99 389.2 528.4 389.67 528.57 390.3 C 528.63 390.67 528.47 391.03 528.18 391.25 L 528.38 394.38 C 528.38 394.79 528.04 395.13 527.63 395.13 C 527.3 395.12 526.98 394.99 526.75 394.75 C 526.53 394.52 526.44 394.19 526.5 393.88 Z" fill="#3b393b" stroke="none" transform="rotate(10,532.13,384.25)" pointer-events="all" style="fill: light-dark(rgb(59, 57, 59), rgb(189, 187, 189));"/><path d="M 526.13 367.25 L 528 366.5 L 538.63 369.75 L 536.75 370.38 Z" fill="#d9dde6" stroke="none" transform="rotate(10,532.13,384.25)" pointer-events="all" style="fill: light-dark(rgb(217, 221, 230), rgb(44, 48, 56));"/><path d="M 522 381.22 L 535.13 384.85 L 542.25 383.1 L 542.25 384.85 L 535.13 386.6 L 522 382.88 Z" fill-opacity="0.7" fill="#0378b2" stroke="none" transform="rotate(10,532.13,384.25)" pointer-events="all" style="fill: light-dark(rgb(3, 120, 178), rgb(69, 170, 220));"/><path d="M 523.25 381 C 523.96 380.62 524.72 380.32 525.5 380.13 L 530.25 378.97 L 539.75 381.78 C 540.15 382.06 540.49 382.41 540.75 382.83 C 540.91 383.67 540.93 384.53 540.8 385.38 C 540.71 387.48 540.09 389.52 539 391.33 C 537.99 392.4 536.69 393.16 535.25 393.5 C 533.74 394.1 532.13 394.39 530.5 394.38 C 528.98 394.33 527.52 393.62 526.4 392.38 C 525.24 391.27 524.29 389.96 523.63 388.5 C 523.09 387.19 522.83 385.79 522.88 384.38 C 522.85 383.24 522.97 382.1 523.25 381 Z" fill-opacity="0.3" fill="#ffffff" stroke="none" transform="rotate(10,532.13,384.25)" pointer-events="all" style="fill: light-dark(rgb(255, 255, 255), rgb(18, 18, 18));"/><rect x="522" y="366.5" width="0" height="0" fill="none" stroke="none" transform="rotate(10,532.13,384.25)" pointer-events="all"/><path d="M 527.88 380.63 L 526.13 380.13 L 526.13 367.25 L 536.75 370.38 L 536.75 383.38 L 535.25 383 L 535.25 371.38 L 527.88 369.13 Z" fill="#9ba5b6" stroke="none" transform="rotate(10,532.13,384.25)" pointer-events="all" style="fill: light-dark(rgb(155, 165, 182), rgb(88, 97, 111));"/><path d="M 536.75 383.38 L 536.75 370.38 L 538.63 369.75 L 538.63 382.88 Z" fill="#60686f" stroke="none" transform="rotate(10,532.13,384.25)" pointer-events="all" style="fill: light-dark(rgb(96, 104, 111), rgb(143, 150, 156));"/><path d="M 527.88 380.63 L 527.88 369.13 L 529.63 369.72 L 529.63 380.13 Z" fill="#5c6369" stroke="none" transform="rotate(10,532.13,384.25)" pointer-events="all" style="fill: light-dark(rgb(92, 99, 105), rgb(148, 154, 159));"/><path d="M 522 397.88 L 522 380.63 L 526.13 379.5 L 526.13 367.13 L 528 366.5 L 538.63 369.75 L 538.63 381.5 L 542.25 382.5 L 542.25 400.25 L 535 402 Z M 529.63 378.75 L 535.25 380.5 L 535.25 371.38 L 529.63 369.75 Z" fill="none" stroke="#000000" stroke-width="0.3" stroke-miterlimit="10" transform="rotate(10,532.13,384.25)" pointer-events="all" style="stroke: light-dark(rgb(0, 0, 0), rgb(237, 237, 237));"/></g></g><g data-cell-id="lZi1SpKdkdcPsESIqgzh-43"><g><path d="M 593.76 240 L 631.9 39.95" fill="none" stroke="#000000" stroke-miterlimit="10" stroke-dasharray="3 3" pointer-events="stroke" style="stroke: light-dark(rgb(0, 0, 0), rgb(255, 255, 255));"/></g></g><g data-cell-id="lZi1SpKdkdcPsESIqgzh-9"><g><path d="M 543.93 54.54 C 543.37 48.5 544.43 42.41 547.01 36.92 C 552.2 28.27 560.96 22.36 570.93 20.77 C 576.83 20.19 582.77 21.46 587.91 24.41 C 595.2 15.64 604.97 9.26 615.94 6.1 C 631.05 0 648.05 0.67 662.65 7.92 C 670.83 11.93 678.27 17.31 684.63 23.84 C 690.57 19.39 698.01 17.43 705.37 18.38 C 712.99 20.06 719.39 25.19 722.69 32.25 C 724.51 36.6 725.06 41.37 724.28 46.01 C 732.2 52.9 737.07 62.63 737.84 73.08 C 738.33 82.43 735.51 91.65 729.87 99.12 C 725.69 104.51 720.2 108.74 713.91 111.41 C 712.09 116.34 708.94 120.67 704.8 123.92 C 697.78 128.66 689.01 130.03 680.88 127.67 C 676.67 125.88 672.96 123.11 670.05 119.59 C 664.67 123.1 658.68 125.57 652.39 126.87 C 645.4 129.05 638.02 129.71 630.75 128.81 C 626.12 128.48 621.56 127.52 617.19 125.96 C 611.99 131.71 605.22 135.83 597.71 137.79 C 582.41 141.18 566.54 135.3 557.15 122.78 C 551.01 113.41 549.11 101.89 551.91 91.05 C 548 93.24 543.45 94 539.03 93.21 C 533.56 92.32 528.74 89.14 525.78 84.46 C 522.81 79.79 522 74.07 523.54 68.76 C 525.99 59.71 534.58 53.72 543.93 54.54 Z" fill="#97a1b2" stroke="#000000" stroke-width="1.25" stroke-miterlimit="10" pointer-events="all" style="fill: light-dark(rgb(151, 161, 178), rgb(92, 100, 115)); stroke: light-dark(rgb(0, 0, 0), rgb(237, 237, 237));"/><rect x="522" y="0" width="0" height="0" fill="none" stroke="none" pointer-events="all"/><path d="M 547.81 58.41 C 546.57 51.98 547.29 45.33 549.86 39.3 C 554.57 30.53 563.39 24.72 573.33 23.84 C 578.8 23.71 584.18 25.3 588.71 28.39 C 595.67 20.05 605.19 13.41 616.28 9.17 C 630.82 3.64 647 4.3 661.05 10.99 C 669.97 15.39 677.95 21.49 684.52 28.95 C 689.01 24.34 695.24 21.6 701.84 21.34 C 709.96 21.66 717.02 27.02 719.5 34.75 C 721.05 38.9 721.29 43.43 720.18 47.72 C 728.53 53.97 733.8 63.49 734.65 73.88 C 734.98 83.02 731.85 91.95 725.88 98.9 C 721.99 103.6 717.03 107.31 711.41 109.7 C 709.56 115.02 706.05 119.61 701.38 122.78 C 694.67 126.49 686.53 126.58 679.74 123.01 C 676.07 120.97 672.94 118.08 670.62 114.59 C 664.27 119.41 656.84 122.61 648.97 123.92 C 642.65 125.52 636.08 125.91 629.61 125.05 C 624.88 124.74 620.25 123.58 615.94 121.64 C 611.61 127.41 605.66 131.76 598.85 134.15 C 584.37 137.67 569.17 132.32 560.11 120.5 C 553.3 109.1 552.45 95.11 557.83 82.97 C 553.37 86.79 547.75 88.99 541.88 89.23 C 537.12 89.28 532.62 87.04 529.8 83.2 C 526.98 79.37 526.17 74.42 527.64 69.9 C 530.32 61.4 539.11 56.39 547.81 58.41 Z" fill="#d0d4dd" stroke="none" pointer-events="all" style="fill: light-dark(rgb(208, 212, 221), rgb(52, 55, 63));"/></g></g><g data-cell-id="lZi1SpKdkdcPsESIqgzh-44"><g><rect x="603" y="50" width="60" height="30" fill="none" stroke="none" pointer-events="all"/></g><g><g transform="translate(-0.5 -0.5)"><switch><foreignObject style="overflow: visible; text-align: left;" pointer-events="none" width="100%" height="100%" requiredFeatures="http://www.w3.org/TR/SVG11/feature#Extensibility"><div xmlns="http://www.w3.org/1999/xhtml" style="display: flex; align-items: unsafe center; justify-content: unsafe center; width: 1px; height: 1px; padding-top: 65px; margin-left: 633px;"><div style="box-sizing: border-box; font-size: 0; text-align: center; color: #000000; "><div style="display: inline-block; font-size: 12px; font-family: &quot;Helvetica&quot;; color: light-dark(#000000, #ffffff); line-height: 1.2; pointer-events: all; white-space: nowrap; ">Internet</div></div></div></foreignObject><text x="633" y="69" fill="light-dark(#000000, #ffffff)" font-family="&quot;Helvetica&quot;" font-size="12px" text-anchor="middle">Internet</text></switch></g></g></g><g data-cell-id="lZi1SpKdkdcPsESIqgzh-45"><g><rect x="617" y="243.25" width="90" height="30" fill="none" stroke="none" pointer-events="all"/></g><g><g transform="translate(-0.5 -0.5)"><switch><foreignObject style="overflow: visible; text-align: left;" pointer-events="none" width="100%" height="100%" requiredFeatures="http://www.w3.org/TR/SVG11/feature#Extensibility"><div xmlns="http://www.w3.org/1999/xhtml" style="display: flex; align-items: unsafe center; justify-content: unsafe center; width: 1px; height: 1px; padding-top: 258px; margin-left: 662px;"><div style="box-sizing: border-box; font-size: 0; text-align: center; color: #000000; "><div style="display: inline-block; font-size: 12px; font-family: &quot;Helvetica&quot;; color: light-dark(#000000, #ffffff); line-height: 1.2; pointer-events: all; white-space: nowrap; ">OpenWRT?</div></div></div></foreignObject><text x="662" y="262" fill="light-dark(#000000, #ffffff)" font-family="&quot;Helvetica&quot;" font-size="12px" text-anchor="middle">OpenWRT?</text></switch></g></g></g><g data-cell-id="lZi1SpKdkdcPsESIqgzh-46"><g><rect x="592" y="366.5" width="60" height="30" fill="none" stroke="none" pointer-events="all"/></g><g><g transform="translate(-0.5 -0.5)"><switch><foreignObject style="overflow: visible; text-align: left;" pointer-events="none" width="100%" height="100%" requiredFeatures="http://www.w3.org/TR/SVG11/feature#Extensibility"><div xmlns="http://www.w3.org/1999/xhtml" style="display: flex; align-items: unsafe center; justify-content: unsafe center; width: 58px; height: 1px; padding-top: 382px; margin-left: 593px;"><div style="box-sizing: border-box; font-size: 0; text-align: center; color: #000000; "><div style="display: inline-block; font-size: 12px; font-family: &quot;Helvetica&quot;; color: light-dark(#000000, #ffffff); line-height: 1.2; pointer-events: all; white-space: normal; word-wrap: normal; ">OPNsense</div></div></div></foreignObject><text x="622" y="385" fill="light-dark(#000000, #ffffff)" font-family="&quot;Helvetica&quot;" font-size="12px" text-anchor="middle">OPNsense</text></switch></g></g></g><g data-cell-id="lZi1SpKdkdcPsESIqgzh-4"><g><path d="M 445.5 615.75 L 445.5 548.75 L 481 540 L 510.75 549 L 510.75 616.75 L 475.75 625 Z" fill="#abb4c5" stroke="none" pointer-events="all" style="fill: light-dark(rgb(171, 180, 197), rgb(75, 83, 97));"/><path d="M 445.5 548.75 L 481 540 L 510.75 549 L 475.75 557.5 Z" fill="#b8bfd1" stroke="none" pointer-events="all" style="fill: light-dark(rgb(184, 191, 209), rgb(67, 73, 89));"/><path d="M 475.75 557.5 L 510.75 549 L 510.75 616.75 L 475.75 625 Z" fill="#5b6369" stroke="none" pointer-events="all" style="fill: light-dark(rgb(91, 99, 105), rgb(147, 154, 159));"/><path d="M 476.1 594.35 C 469.59 591.84 463.35 588.66 457.5 584.85 C 454.69 582.9 452.31 580.4 450.5 577.5 C 449.26 575.23 448.62 572.68 448.65 570.1 C 448.54 567.32 448.59 564.53 448.8 561.75 C 448.94 559.27 449.21 556.8 449.6 554.35 C 449.97 553 450.52 551.7 451.25 550.5 C 452.77 549.48 454.49 548.63 456.35 548 C 459.52 546.92 462.74 546 466 545.25 C 469.4 544.34 472.86 543.67 476.35 543.25 C 478.72 542.95 481.11 542.87 483.5 543 C 487.38 543.28 491.21 544.12 494.85 545.5 L 506.7 549.85 C 507.74 551.58 508.42 553.5 508.7 555.5 C 509.03 558.19 509.21 560.89 509.25 563.6 C 509.44 569.57 509.27 575.55 508.75 581.5 C 508.68 584.12 507.79 586.66 506.2 588.75 C 503.88 591.3 500.76 592.98 497.35 593.5 C 494.62 593.93 491.86 594.13 489.1 594.1 Z" fill-opacity="0.4" fill="#ffffff" stroke="none" pointer-events="all" style="fill: light-dark(rgb(255, 255, 255), rgb(18, 18, 18));"/><rect x="445.5" y="540" width="0" height="0" fill="none" stroke="none" pointer-events="all"/><path d="M 449 559 L 449 557.25 L 471.75 564.25 L 471.75 566 Z M 452.75 612 L 452.75 610.25 L 466.75 614.25 L 466.75 616 Z" fill="#52595e" stroke="none" pointer-events="all" style="fill: light-dark(rgb(82, 89, 94), rgb(157, 163, 168));"/><path d="M 445.5 615.75 L 445.5 548.75 L 481 540 L 510.75 549 L 510.75 616.75 L 475.75 625 Z" fill="none" stroke="#000000" stroke-width="0.6" stroke-miterlimit="10" pointer-events="all" style="stroke: light-dark(rgb(0, 0, 0), rgb(237, 237, 237));"/><rect x="445.5" y="540" width="0" height="0" fill="none" stroke="none" pointer-events="all"/><ellipse cx="502.45" cy="611.06" rx="18.8" ry="18.8" fill="#008cce" stroke="none" pointer-events="all" style="fill: light-dark(rgb(0, 140, 206), rgb(40, 160, 217));"/><path d="M 489.62 597.59 C 489.81 598.11 490.06 598.6 490.38 599.05 C 490.9 599.11 491.4 599.27 491.86 599.53 C 491.73 600.05 491.95 600.61 492.41 600.89 C 492.77 601.09 493 601.45 493.05 601.85 C 493.07 602.05 493.16 602.24 493.32 602.37 C 493.47 602.5 493.67 602.56 493.88 602.55 C 494.11 602.51 494.34 602.5 494.57 602.49 C 495.08 602.43 495.6 602.54 496.03 602.8 L 497.62 603.95 C 497.87 604.12 498.05 604.38 498.13 604.68 C 498.22 604.97 498.22 605.28 498.13 605.57 C 498 605.61 497.87 605.59 497.75 605.53 C 497.66 605.28 497.48 605.08 497.24 604.96 C 496.94 604.84 496.59 604.84 496.29 604.96 C 495.88 605.19 495.41 605.27 494.95 605.19 C 494.57 605.2 494.22 605.39 493.99 605.7 C 493.82 605.95 493.54 606.11 493.23 606.14 C 492.93 606.16 492.63 606.05 492.41 605.82 C 492.23 605.57 491.92 605.43 491.61 605.46 C 491.3 605.5 491.02 605.69 490.89 605.97 C 490.73 606.34 490.63 606.72 490.59 607.12 C 490.59 607.63 490.5 608.14 490.3 608.62 C 490.2 608.86 490.02 609.07 489.8 609.2 C 489.43 609.3 489.19 609.66 489.24 610.04 C 489.54 610.39 489.77 610.8 489.93 611.24 C 490.06 611.51 489.96 611.82 489.67 611.99 C 489.38 612.23 489.25 612.6 489.32 612.97 C 488.87 612.97 488.44 612.9 488.02 612.76 C 487.86 612.55 487.64 612.4 487.39 612.32 C 487.15 612.27 486.9 612.36 486.75 612.55 C 486.46 612.96 486.25 613.42 486.14 613.91 C 486.04 614.23 485.99 614.58 485.99 614.92 C 486.31 615.53 486.47 616.21 486.45 616.9 L 486.7 618.93 C 486.72 619.2 486.65 619.47 486.51 619.7 C 486.35 619.9 486.13 620.05 485.89 620.13 C 481.89 612.64 483.41 603.4 489.59 597.59 Z" fill="#00527f" stroke="none" pointer-events="all" style="fill: light-dark(rgb(0, 82, 127), rgb(121, 191, 230));"/><path d="M 512.61 595.43 C 512.53 595.71 512.35 595.96 512.11 596.12 C 511.88 596.21 511.64 596.26 511.39 596.27 L 509.99 596.45 C 509.39 596.37 508.78 596.44 508.22 596.65 C 508.27 596.85 508.19 597.06 508.02 597.19 C 507.86 597.31 507.63 597.32 507.45 597.21 C 507.09 597.21 506.75 597.37 506.51 597.64 C 506.33 597.85 506.08 597.98 505.8 598.03 C 505.42 598.1 505.09 598.36 504.91 598.71 C 504.75 599.02 504.45 599.08 504.23 598.86 C 504.09 598.58 504.01 598.28 503.97 597.97 C 503.73 597.38 503.28 596.88 502.7 596.57 C 502.12 596.32 501.58 595.98 501.11 595.56 C 500.8 595.33 500.61 594.98 500.59 594.59 C 500.58 594.36 500.61 594.13 500.67 593.91 C 500.48 593.51 500.09 593.24 499.66 593.2 C 499.33 593.11 499.06 592.88 498.95 592.56 C 503.78 591.66 508.78 592.69 512.86 595.43 Z" fill="#64aadc" stroke="none" pointer-events="all" style="fill: light-dark(rgb(100, 170, 220), rgb(50, 110, 153));"/><path d="M 520.49 616.14 C 520.43 615.56 520.21 615 519.85 614.54 C 519.46 614.51 519.08 614.7 518.89 615.05 C 518.57 615.49 518.1 615.79 517.57 615.89 C 517.19 615.47 517.27 614.89 517.74 614.54 C 518.06 614.08 518.13 613.49 517.95 612.97 C 517.9 612.74 517.82 612.52 517.7 612.32 C 517.34 611.97 517.08 611.53 516.93 611.05 C 516.6 611.27 516.2 611.24 515.89 610.97 C 515.58 610.71 515.41 610.25 515.45 609.78 C 515.47 609.24 515.27 608.71 514.9 608.32 C 514.93 607.45 514.66 606.59 514.14 605.9 C 513.61 605.37 512.9 605.05 512.16 605.01 C 511.53 605.02 511.01 604.65 510.99 604.18 C 510.98 603.71 511.48 603.32 512.11 603.31 C 513.05 603.42 514.01 603.39 514.95 603.23 C 515.86 603.12 516.75 602.85 517.57 602.42 L 518.45 601.2 C 521.19 605.68 521.92 611.09 520.49 616.14 Z" fill="#0a79b9" stroke="none" pointer-events="all" style="fill: light-dark(rgb(10, 121, 185), rgb(70, 166, 221));"/><path d="M 518.58 620.84 C 518.15 621.38 517.58 621.79 516.93 622.03 C 516.42 622.19 516.07 622.64 516.04 623.18 C 515.99 623.36 515.93 623.26 515.88 622.9 C 515.83 622.54 515.8 621.95 515.78 621.27 C 515.86 620.63 516.1 620.02 516.47 619.49 C 516.88 619.11 517.25 618.68 517.57 618.22 C 517.68 618.04 517.68 617.8 517.57 617.62 C 517.46 617.43 517.25 617.33 517.03 617.35 C 516.81 617.37 516.63 617.51 516.55 617.72 C 516.08 618.27 515.65 618.86 515.28 619.49 C 514.66 620.42 513.77 620.8 512.91 620.51 C 512.4 620.26 511.84 620.13 511.26 620.13 C 510.93 620.26 510.71 620.48 510.69 620.72 C 510.66 620.96 510.83 621.19 511.14 621.34 C 511.62 621.49 512.02 621.81 512.28 622.24 C 512.68 622.92 511.88 623.62 510.32 623.94 C 509.26 623.97 508.2 624.16 507.2 624.52 C 506.61 625.06 506.21 625.77 506.05 626.55 C 505.87 626.9 504.93 627.16 503.77 627.19 C 502.95 627.07 502.11 627.11 501.3 627.32 C 500.63 627.56 499.88 627.44 499.32 626.99 C 499.19 626.72 498.93 626.54 498.63 626.53 C 498.33 626.52 498.05 626.66 497.89 626.92 C 497.74 627.17 497.73 627.49 497.88 627.75 C 498.14 628.22 498.66 628.47 499.2 628.39 C 499.58 628.17 500.07 628.08 500.55 628.13 C 500.84 628.2 501.07 628.37 501.18 628.59 C 501.34 628.72 501.67 628.83 502.09 628.88 C 502.5 628.92 502.96 628.91 503.34 628.84 C 503.97 628.65 504.77 628.53 505.63 628.51 C 506.23 628.47 506.79 628.38 507.28 628.26 C 507.75 627.9 508.34 627.72 508.93 627.75 C 509.26 627.68 509.52 627.59 509.69 627.49 C 509.92 627.32 510.21 627.23 510.51 627.24 C 510.65 627.34 510.7 627.54 510.63 627.7 C 510.43 627.97 510.2 628.2 509.95 628.41 C 513.54 626.85 516.56 624.2 518.58 620.84 Z" fill="#266792" stroke="none" pointer-events="all" style="fill: light-dark(rgb(38, 103, 146), rgb(112, 167, 204));"/><path d="M 492.47 610.93 C 492.6 611.11 492.84 611.19 493.05 611.11 C 493.13 610.95 493.19 610.78 493.22 610.6 C 493.34 610.21 493.34 609.79 493.22 609.41 C 493.08 609.29 492.89 609.26 492.72 609.33 C 492.59 609.86 492.51 610.39 492.47 610.93 Z" fill="#266792" stroke="none" pointer-events="all" style="fill: light-dark(rgb(38, 103, 146), rgb(112, 167, 204));"/><ellipse cx="501.31" cy="603.06" rx="13.5925" ry="9.4" fill-opacity="0.3" fill="#ffffff" stroke="none" pointer-events="all" style="fill: light-dark(rgb(255, 255, 255), rgb(18, 18, 18));"/><ellipse cx="495.1" cy="601.26" rx="3.9375" ry="2.8675" fill-opacity="0.4" fill="#ffffff" stroke="none" pointer-events="all" style="fill: light-dark(rgb(255, 255, 255), rgb(18, 18, 18));"/><rect x="445.5" y="540" width="0" height="0" fill="none" stroke="none" pointer-events="all"/><ellipse cx="502.45" cy="611.06" rx="18.8" ry="18.8" fill="none" stroke="#000000" stroke-width="0.48" pointer-events="all" style="stroke: light-dark(rgb(0, 0, 0), rgb(237, 237, 237));"/><rect x="445.5" y="540" width="0" height="0" fill="none" stroke="none" pointer-events="all"/><path d="M 497.39 621.45 L 488.66 618.78 L 488.66 599.45 L 498.89 596.92 L 507.48 599.51 L 507.48 619.07 Z" fill="#abb4c5" stroke="none" pointer-events="all" style="fill: light-dark(rgb(171, 180, 197), rgb(75, 83, 97));"/><path d="M 497.39 601.97 L 488.66 599.45 L 498.89 596.92 L 507.48 599.51 Z" fill="#b8bfd1" stroke="none" pointer-events="all" style="fill: light-dark(rgb(184, 191, 209), rgb(67, 73, 89));"/><path d="M 497.39 621.45 L 497.39 601.97 L 507.48 599.51 L 507.48 619.07 Z" fill="#5b6369" stroke="none" pointer-events="all" style="fill: light-dark(rgb(91, 99, 105), rgb(147, 154, 159));"/><path d="M 497.49 612.6 C 495.6 611.88 493.8 610.96 492.11 609.86 C 491.3 609.3 490.62 608.58 490.09 607.74 C 489.74 607.09 489.55 606.35 489.57 605.61 C 489.53 604.8 489.55 604 489.61 603.2 C 489.65 602.48 489.73 601.77 489.84 601.06 C 489.95 600.67 490.11 600.3 490.32 599.95 C 490.75 599.66 491.25 599.41 491.78 599.23 C 492.7 598.92 493.63 598.65 494.57 598.43 C 495.55 598.17 496.55 597.98 497.55 597.86 C 498.24 597.77 498.93 597.75 499.62 597.78 C 500.74 597.86 501.84 598.11 502.89 598.51 L 506.31 599.76 C 506.61 600.26 506.81 600.81 506.89 601.39 C 506.99 602.17 507.04 602.95 507.05 603.73 C 507.1 605.45 507.06 607.18 506.91 608.89 C 506.89 609.65 506.63 610.38 506.17 610.99 C 505.5 611.72 504.6 612.21 503.61 612.36 C 502.83 612.48 502.03 612.54 501.24 612.53 Z" fill-opacity="0.4" fill="#ffffff" stroke="none" pointer-events="all" style="fill: light-dark(rgb(255, 255, 255), rgb(18, 18, 18));"/><rect x="445.5" y="540" width="0" height="0" fill="none" stroke="none" pointer-events="all"/><path d="M 495.51 604.28 L 490.32 602.91 L 490.32 602.11 L 495.51 603.49 Z M 495.43 619.36 L 490.39 617.99 L 490.39 610.7 L 495.43 612.07 Z" fill="#52595e" stroke="none" pointer-events="all" style="fill: light-dark(rgb(82, 89, 94), rgb(157, 163, 168));"/><path d="M 497.39 621.45 L 488.66 618.78 L 488.66 599.45 L 498.89 596.92 L 507.48 599.51 L 507.48 619.07 Z" fill="none" stroke="#000000" stroke-width="0.6" stroke-miterlimit="10" pointer-events="all" style="stroke: light-dark(rgb(0, 0, 0), rgb(237, 237, 237));"/><rect x="445.5" y="540" width="0" height="0" fill="none" stroke="none" pointer-events="all"/><path d="M 501.59 623.06 L 501.59 622.67 L 503.01 622.26 L 498.68 620.99 L 498.68 605.22 L 500.2 604.86 L 514.34 609.11 L 514.34 624.91 L 512.89 625.24 L 509.57 624.23 L 509.57 624.55 L 507.91 624.98 Z M 499.98 620.22 L 512.17 623.76 L 512.17 610.12 L 499.98 606.57 Z" fill="#b6bdcf" stroke="none" pointer-events="all" style="fill: light-dark(rgb(182, 189, 207), rgb(69, 75, 91));"/><path d="M 499.55 620.51 L 499.55 606.44 L 499.98 606.57 L 499.98 620.22 L 512.17 623.76 L 512.17 624.18 Z" fill="#e6e7e9" stroke="none" pointer-events="all" style="fill: light-dark(rgb(230, 231, 233), rgb(37, 38, 39));"/><path d="M 500.78 620.45 L 501.78 620.22 L 512.17 623.25 L 512.17 623.76 Z" fill="#5b6369" stroke="none" pointer-events="all" style="fill: light-dark(rgb(91, 99, 105), rgb(147, 154, 159));"/><path d="M 499.98 620.22 L 499.98 606.57 L 512.17 610.12 L 512.17 623.76 Z" fill-opacity="0.8" fill="#acd9f1" stroke="none" pointer-events="all" style="fill: light-dark(rgb(172, 217, 241), rgb(26, 64, 85));"/><path d="M 511.81 618.81 C 510.63 617.43 508.93 616.61 507.12 616.54 C 506.53 616.58 505.98 616.7 505.53 616.9 C 504.66 617.26 503.67 617.26 502.79 616.9 C 501.83 616.54 500.98 615.92 500.34 615.13 L 500.34 607.09 L 511.81 610.48 Z" fill-opacity="0.5" fill="#ffffff" stroke="none" pointer-events="all" style="fill: light-dark(rgb(255, 255, 255), rgb(18, 18, 18));"/><rect x="445.5" y="540" width="0" height="0" fill="none" stroke="none" pointer-events="all"/><path d="M 512.97 625.2 L 512.97 609.47 L 514.34 609.11 L 514.34 624.91 Z" fill="#5b6369" stroke="none" pointer-events="all" style="fill: light-dark(rgb(91, 99, 105), rgb(147, 154, 159));"/><path d="M 512.97 609.47 L 498.68 605.22 L 500.2 604.86 L 514.34 609.11 Z" fill="#c2c9d8" stroke="none" pointer-events="all" style="fill: light-dark(rgb(194, 201, 216), rgb(59, 65, 78));"/><path d="M 507.91 624.62 L 501.59 622.67 L 503.01 622.24 L 509.57 624.23 Z" fill="#676e77" stroke="none" pointer-events="all" style="fill: light-dark(rgb(103, 110, 119), rgb(138, 144, 152));"/><path d="M 509.57 624.23 L 509.57 624.23 L 509.57 624.55 L 507.91 624.98 L 507.91 624.62 Z" fill="#4c5357" stroke="none" pointer-events="all" style="fill: light-dark(rgb(76, 83, 87), rgb(162, 168, 172));"/><path d="M 495.51 605.93 L 490.32 604.57 L 490.32 603.78 L 495.51 605.14 Z" fill="#52595e" stroke="none" pointer-events="all" style="fill: light-dark(rgb(82, 89, 94), rgb(157, 163, 168));"/><path d="M 501.59 623.06 L 501.59 622.67 L 503.01 622.26 L 498.68 620.99 L 498.68 605.22 L 500.2 604.86 L 514.34 609.11 L 514.34 624.91 L 512.89 625.24 L 509.57 624.23 L 509.57 624.55 L 507.91 624.98 Z" fill="none" stroke="#000000" stroke-width="0.17" stroke-miterlimit="10" pointer-events="all" style="stroke: light-dark(rgb(0, 0, 0), rgb(237, 237, 237));"/></g></g><g data-cell-id="lZi1SpKdkdcPsESIqgzh-35"><g><path d="M 167 540 C 143 540 137 560 156.2 564 C 137 572.8 158.6 592 174.2 584 C 185 600 221 600 233 584 C 257 584 257 568 242 560 C 257 544 233 528 212 536 C 197 524 173 524 167 540 Z" fill="#ffffff" stroke="#000000" stroke-miterlimit="10" pointer-events="all" style="fill: light-dark(#ffffff, var(--ge-dark-color, #121212)); stroke: light-dark(rgb(0, 0, 0), rgb(255, 255, 255));"/></g><g><g transform="translate(-0.5 -0.5)"><switch><foreignObject style="overflow: visible; text-align: left;" pointer-events="none" width="100%" height="100%" requiredFeatures="http://www.w3.org/TR/SVG11/feature#Extensibility"><div xmlns="http://www.w3.org/1999/xhtml" style="display: flex; align-items: unsafe center; justify-content: unsafe center; width: 118px; height: 1px; padding-top: 560px; margin-left: 138px;"><div style="box-sizing: border-box; font-size: 0; text-align: center; color: #000000; "><div style="display: inline-block; font-size: 12px; font-family: &quot;Helvetica&quot;; color: light-dark(#000000, #ffffff); line-height: 1.2; pointer-events: all; white-space: normal; word-wrap: normal; ">VPN</div></div></div></foreignObject><text x="197" y="564" fill="light-dark(#000000, #ffffff)" font-family="&quot;Helvetica&quot;" font-size="12px" text-anchor="middle">VPN</text></switch></g></g></g><g data-cell-id="lZi1SpKdkdcPsESIqgzh-47"><g><rect x="432" y="728.94" width="75" height="16" fill="none" stroke="none" transform="rotate(96,469.5,736.94)" pointer-events="all"/><path d="M 492 744.94 L 507 744.94 M 432 744.94 L 450.5 744.94 L 489 728.94" fill="none" stroke="#000000" stroke-miterlimit="10" transform="rotate(96,469.5,736.94)" pointer-events="all" style="stroke: light-dark(rgb(0, 0, 0), rgb(255, 255, 255));"/></g></g><g data-cell-id="lZi1SpKdkdcPsESIqgzh-49"><g><path d="M 390.34 899.08 L 455.85 772.48 M 459.4 774.32 L 393.89 900.92 M 459.4 774.32" fill="none" stroke="#000000" stroke-miterlimit="10" pointer-events="all" style="stroke: light-dark(rgb(0, 0, 0), rgb(255, 255, 255));"/></g></g><g data-cell-id="lZi1SpKdkdcPsESIqgzh-51"><g><path d="M 829.7 802.29 L 824.28 810.7 L 535.18 624.27 L 529.49 633.1 L 521.92 609.77 L 546.29 607.05 L 540.6 615.87 Z" fill="none" stroke="#000000" stroke-miterlimit="10" pointer-events="all" style="stroke: light-dark(rgb(0, 0, 0), rgb(255, 255, 255));"/></g></g><g data-cell-id="lZi1SpKdkdcPsESIqgzh-24"><g><path d="M 745.5 802.77 L 745.5 799.3 L 784.7 789.77 L 784.7 745.37 L 787.09 744.94 L 846 762.27 L 846 806.23 L 845.57 806.41 L 845.57 809.7 L 805.28 819.88 Z" fill="#dedede" stroke="none" pointer-events="all" style="fill: light-dark(rgb(222, 222, 222), rgb(46, 46, 46));"/><path d="M 784.7 789.77 L 784.7 745.37 L 844.27 762.92 L 844.27 806.67 Z" fill="#e6e6e6" stroke="none" pointer-events="all" style="fill: light-dark(rgb(230, 230, 230), rgb(39, 39, 39));"/><path d="M 761.74 796.49 L 814.38 812.08 L 835.17 806.88 M 766.29 795.41 L 818.28 811 M 770.84 794.32 L 823.26 809.92 M 775.17 793.24 L 827.16 808.83 M 774.22 795.27 L 786.21 792.1 M 773.88 797.62 L 785.87 794.81 M 773.93 800.04 L 794.94 794.93 M 778.39 801.44 L 799.82 796.19 M 787.23 801.67 L 804.05 797.71 M 791.65 803.02 L 808.54 798.89 M 767.11 797.99 L 771.19 796.82 M 779.61 792.12 L 782.42 792.99 M 788.3 794.63 L 805.21 799.74 M 796.35 804.35 L 808.71 801.24 M 800.98 805.75 L 817.41 801.38 M 800.81 808.1 L 821.28 802.58 M 807.39 809.86 L 810.68 808.9 M 809.45 808.34 L 822.47 804.92 M 818.57 808.45 L 826.88 806.24 M 825.26 805.66 L 828.47 804.62 M 811.17 801.3 L 831.46 807.7" fill="none" stroke="#666666" stroke-width="0.48" stroke-linecap="round" stroke-miterlimit="10" pointer-events="all" style="stroke: light-dark(rgb(102, 102, 102), rgb(149, 149, 149));"/><rect x="745.5" y="744.94" width="0" height="0" fill="none" stroke="none" pointer-events="all"/><path d="M 787.09 788.69 L 787.09 748.41 L 840.37 764.43 L 840.37 803.85 Z" fill="#0068aa" stroke="none" pointer-events="all" style="fill: light-dark(rgb(0, 104, 170), rgb(89, 178, 235));"/><path d="M 787.52 749.06 L 839.94 764.87 L 839.94 796.06 C 835.73 796.39 831.51 795.49 827.81 793.46 C 823 790.82 818.74 787.29 815.24 783.06 C 813.2 780.36 811.32 777.54 809.61 774.61 C 806.34 769.62 801.67 765.7 796.18 763.35 C 793.44 762.26 790.45 761.88 787.52 762.27 Z" fill-opacity="0.4" fill="#ffffff" stroke="none" pointer-events="all" style="fill: light-dark(rgb(255, 255, 255), rgb(18, 18, 18));"/><rect x="745.5" y="744.94" width="0" height="0" fill="none" stroke="none" pointer-events="all"/><path d="M 784.92 745.37 L 787.09 744.94 L 846 762.27 L 844.27 762.92 Z" fill="#5c656d" stroke="none" pointer-events="all" style="fill: light-dark(rgb(92, 101, 109), rgb(144, 152, 159));"/><path d="M 773.87 805.15 C 773.55 804.87 773.64 804.51 774.09 804.29 L 779.51 802.99 C 780.23 802.83 781.17 802.83 781.89 802.99 L 792.63 806.19 C 792.88 806.32 793.03 806.5 793.03 806.69 C 793.03 806.88 792.88 807.06 792.63 807.19 L 786.87 808.7 C 786.23 808.81 785.47 808.81 784.83 808.7 Z" fill="#abadaf" stroke="none" pointer-events="all" style="fill: light-dark(rgb(171, 173, 175), rgb(87, 89, 90));"/><path d="M 775.82 804.76 L 781.02 803.77 L 790.72 806.58 L 785.57 807.88 Z" fill="#008fc5" stroke="none" pointer-events="all" style="fill: light-dark(rgb(0, 143, 197), rgb(37, 160, 206));"/><path d="M 745.5 799.3 L 805.28 815.98 L 805.28 819.88 L 745.5 802.77 Z" fill="#c6c6c6" stroke="none" pointer-events="all" style="fill: light-dark(rgb(198, 198, 198), rgb(67, 67, 67));"/><path d="M 805.28 815.98 L 845.57 806.41 L 845.57 809.7 L 805.37 819.84 Z" fill="#818181" stroke="none" pointer-events="all" style="fill: light-dark(rgb(129, 129, 129), rgb(126, 126, 126));"/><path d="M 844.27 762.92 L 846 762.27 L 846 806.41 L 844.27 806.84 Z" fill="#3c444c" stroke="none" pointer-events="all" style="fill: light-dark(rgb(60, 68, 76), rgb(174, 181, 188));"/><path d="M 745.5 802.77 L 745.5 799.3 L 784.7 789.77 L 784.7 745.37 L 787.09 744.94 L 846 762.27 L 846 806.23 L 845.57 806.41 L 845.57 809.7 L 805.28 819.88 Z" fill="none" stroke="#000000" stroke-width="0.52" stroke-miterlimit="10" pointer-events="all" style="stroke: light-dark(rgb(0, 0, 0), rgb(237, 237, 237));"/></g><g><g transform="translate(-0.5 -0.5)"><switch><foreignObject style="overflow: visible; text-align: left;" pointer-events="none" width="100%" height="100%" requiredFeatures="http://www.w3.org/TR/SVG11/feature#Extensibility"><div xmlns="http://www.w3.org/1999/xhtml" style="display: flex; align-items: unsafe flex-start; justify-content: unsafe center; width: 1px; height: 1px; padding-top: 827px; margin-left: 796px;"><div style="box-sizing: border-box; font-size: 0; text-align: center; color: #000000; "><div style="display: inline-block; font-size: 12px; font-family: &quot;Helvetica&quot;; color: light-dark(#000000, #ffffff); line-height: 1.2; pointer-events: all; white-space: nowrap; ">Admin Backdoor?</div></div></div></foreignObject><text x="796" y="839" fill="light-dark(#000000, #ffffff)" font-family="&quot;Helvetica&quot;" font-size="12px" text-anchor="middle">Admin Backdoor?</text></switch></g></g></g></g></g></g><switch><g requiredFeatures="http://www.w3.org/TR/SVG11/feature#Extensibility"/><a transform="translate(0,-5)" xlink:href="https://www.drawio.com/doc/faq/svg-export-text-problems" target="_blank"><text text-anchor="middle" font-size="10px" x="50%" y="100%">Text is not SVG - cannot display</text></a></switch></svg>